<svg xmlns="http://www.w3.org/2000/svg" width="80" height="80" viewBox="0 0 80 80"><g fill="none" transform="translate(1)"><path fill="#FA4616" d="M24.3978227 32.8138878C25.0406827 33.1789098 25.867449 32.9966849 26.2346711 32.3577534 26.6018932 31.7188219 26.4185921 30.8971081 25.7757321 30.5321301L23.5709236 29.2542818 23.5709236 11.6376406 38.9077591 2.87494225 54.2445946 11.6376406 54.2445946 29.2542818 52.132182 30.4410176C51.489322 30.8060396 51.305401 31.6277535 51.6732429 32.2666409 51.9488366 32.7227754 52.4077757 32.9055724 52.8672756 32.9055724 53.0511966 32.9055724 53.3262146 32.8144614 53.5101356 32.7227754L56.35714 31.0799344C56.7244063 30.8060249 57 30.441003 57 29.8931986L57 10.9078901C57 10.4517556 56.7244063 9.99504908 56.35714 9.72115425L39.6432217.136668697C39.183707-.0455562322 38.7247679-.0455562322 38.265268.136668697L21.64286 9.72115425C21.183921 9.99506375 21 10.3600857 21 10.9078901L21 30.0765678C21 30.5327022 21.2755937 30.9894088 21.64286 31.2633036L24.3978227 32.8138878ZM34.7127213 62.4813041C33.978234 62.4813041 33.3354285 63.1201345 33.3354285 63.8500482L33.3354285 67.4091933 17.9995425 76.2615879 2.66365641 67.3179633 2.66365641 49.7041109 17.9995425 40.8517163 20.4791712 42.3121304C21.1219915 42.6770946 21.9487066 42.4948985 22.3159059 41.8560682 22.6831495 41.2172378 22.4998155 40.3956541 21.8569953 40.0307339L18.6429678 38.2053996C18.2757242 37.9315335 17.724571 37.9315335 17.2656751 38.2053996L.642820246 47.7877812C.18390961 48.0616474 0 48.4266115 0 48.9743292L0 68.1399724C0 68.5960346.275576619 69.0526689.642820246 69.3265204L17.3571798 78.8172319C17.5410894 78.9083285 17.8160904 79 18 79 18.2755766 79 18.4589106 78.9089034 18.6428202 78.8172319L35.3571798 69.2348503C35.8160904 68.9609841 36 68.59602 36 68.0483023L36 63.7587301C35.9994235 63.0288017 35.4488468 62.4816561 34.7137987 62.4816561L34.7127213 62.4813041ZM78.3572964 47.7660296 61.6861041 38.2049431C61.3197766 37.9316856 60.7699982 37.9316856 60.3122471 38.2049431L56.4649469 40.3904765C55.8237302 40.7546296 55.6402794 41.5743876 56.0071811 42.2117543 56.3735086 42.849165 57.1981614 43.0315269 57.8393339 42.666803L61.0453438 40.8455252 76.3429735 49.6782469 76.3429735 67.2529557 61.0453438 76.0856775 45.747714 67.2529557 45.747714 63.7017201C45.747714 62.9734139 45.1064973 62.3360179 44.373857 62.3360179 43.641202 62.3360179 43 62.9734285 43 63.7017201L43 68.0726405C43 68.5276892 43.2748892 68.9833087 43.6412167 69.2565516L60.3138812 78.8176381C60.497332 78.9085322 60.7716471 79 60.9550979 79 61.1385487 79 61.4128638 78.9091059 61.5963146 78.8176381L78.3587833 69.1650852C78.7251108 68.8918277 79 68.5276746 79 67.9811742L79 48.8581231C79 48.4030744 78.7251108 47.9480257 78.3587833 47.7656784L78.3572964 47.7660296Z"/><path fill="#FDD26E" d="M37.5779723,29.4877479 C36.2297213,30.531046 34.7620673,31.4043666 33.2072372,32.0886832 L33.0251952,32.16784 C31.4491867,32.858336 29.7982417,33.3579416 28.1072006,33.6560949 C27.0439162,33.8435662 26.2426906,34.7441903 26.1643903,35.8399265 C26.0118621,37.9744103 25.9473784,40.3050709 26.0494879,42.6406368 L26.0641556,42.9529162 C26.233307,46.3177509 26.7373086,49.0897905 27.7366877,51.1204495 C28.9452307,53.5681407 30.86,55.7333704 33.2524836,57.6541045 C34.8524064,58.9385548 36.4583082,59.9552838 37.9122108,60.7282488 C38.5937329,61.090579 39.4062472,61.090584 40.0877736,60.7282621 C41.5420196,59.9551369 43.1476074,58.9386888 44.7474906,57.6543203 C47.1400267,55.733619 49.0548183,53.5683093 50.2619898,51.1231512 C51.2933599,49.0302242 51.797204,46.1496555 51.9505088,42.6425885 C52.0526295,40.3064299 51.988125,37.9739229 51.8356179,35.8399121 C51.7573096,34.7441548 50.9560494,33.8435247 49.8927383,33.6560825 C48.2622032,33.3686491 46.6688726,32.8938306 45.143998,32.2411119 L44.959753,32.1613045 C43.3429271,31.4664765 41.8182992,30.5681723 40.4220157,29.4877314 C39.5815962,28.8374167 38.4183845,28.8374235 37.5779723,29.4877479 Z M39.0000046,31.3925234 C40.5025816,32.5552139 42.1387685,33.5282152 43.8721998,34.290026 L44.0458657,34.3655023 C45.7910569,35.1301581 47.619196,35.6834221 49.4918008,36.0135279 L49.5141617,36.3394377 C49.6982109,39.1361583 49.975813,46.368555 48.1622878,50.0486877 C45.8524172,54.7273922 40.5398792,57.7888285 39.0000046,58.6074766 L38.7975445,58.4985087 C37.0399313,57.5412674 32.0551972,54.5397862 29.8377215,50.0486877 C27.948574,46.2100899 28.3285857,38.5271722 28.5082084,36.0135279 C30.3162407,35.6947475 32.0828209,35.1680115 33.7733122,34.4438464 L33.9541436,34.3655023 C35.7520131,33.5929307 37.4472244,32.5940895 39.0000046,31.3925234 Z"/><path fill="#FDD26E" d="M44.4046376,42.2322465 L38.4056043,47.8448107 L34.6291094,44.3113479 C34.2565609,43.9627744 33.6524067,43.9627744 33.2794114,44.3113479 C32.9068629,44.6599215 32.9068629,45.2251959 33.2794114,45.5741876 L37.7286299,49.7370815 L37.7286299,49.7366832 C37.9078739,49.9055853 38.1514147,50 38.4055934,50 C38.658497,49.9988049 38.8999123,49.9043921 39.0783061,49.7366832 L45.7543139,43.4903027 C46.0949265,43.1373541 46.0796016,42.5959739 45.7194013,42.2601991 C45.359201,41.9244243 44.7810108,41.9120233 44.404691,42.2323132 L44.4046376,42.2322465 Z"/></g></svg>