<svg xmlns="http://www.w3.org/2000/svg" width="80" height="80" viewBox="0 0 80 80"><g fill="none" transform="translate(0 1)"><path fill="#FDD26E" d="M22.3100578,32.1822201 L39.2331257,41.9596214 C39.4686948,42.0901163 39.7331342,42.158795 40.002356,42.1594807 C40.2722812,42.1587939 40.5380744,42.0873647 40.7715864,41.9513753 L57.6946542,32.1746772 C58.1699243,31.8999521 58.4631989,31.3930865 58.4638954,30.8443219 L58.4638954,11.3137829 C58.4659451,10.7615898 58.1726848,10.251278 57.6946542,9.97518146 L40.7715864,0.206043845 C40.2956306,-0.0686812818 39.7090815,-0.0686812818 39.2331257,0.206043845 L22.3100578,9.99030233 C21.8347878,10.2650275 21.5415132,10.7725788 21.5408275,11.3213434 L21.5408275,30.8518823 C21.5415143,31.4006469 21.8347878,31.9081983 22.3100578,32.1822377 L22.3100578,32.1822201 Z M24.6177489,13.9826694 L38.4638953,21.9675443 L38.4638953,37.9599752 L24.6177489,29.96754 L24.6177489,13.9826694 Z M41.5408168,37.9597994 L41.5408168,21.9900497 L55.3869632,14.2977462 L55.3869632,29.9598037 L41.5408168,37.9597994 Z M40.002356,3.34355425 L54.1410737,11.4815719 L40.002356,19.3126006 L26.1562096,11.3201654 L40.002356,3.34355425 Z"/><path fill="#FA4616" d="M79.231346,29.3215623 L63.8467389,20.5213912 C63.1077327,20.0969343 62.1640496,20.3517491 61.7389598,21.0907623 C61.3145028,21.8297685 61.5693177,22.7734515 62.3083309,23.1985414 L75.7238841,30.890845 L39.9999473,51.0912737 L4.61535085,30.6833725 L17.6922669,23.1985414 L17.6922669,23.1992282 C18.4312731,22.7740855 18.6860774,21.8304025 18.261638,21.0914491 C17.8364954,20.3524429 16.8928124,20.0976386 16.1538589,20.522078 L0.769251818,29.3373699 C0.291221305,29.6134665 -0.00203568035,30.124464 1.06745604e-05,30.6759714 L1.06745604e-05,53.4610141 C-0.00203902101,54.0125215 0.291221305,54.5235191 0.769251818,54.7989299 L39.2307696,77.0055114 L39.2307696,77.0061982 C39.4663387,77.136693 39.7307782,77.2053717 40,77.2060574 C40.2699251,77.2053706 40.5357184,77.1339414 40.7692304,76.9986377 L79.2307482,54.7762321 C79.7060183,54.5015069 79.9999893,53.9946413 79.9999893,53.445191 L79.9999893,30.6601483 C80.002039,30.1079552 79.7087787,29.5976434 79.2307482,29.3215468 L79.231346,29.3215623 Z M3.07841981,33.336681 L38.4630162,53.7516151 L38.4630162,72.9832531 L3.07841981,52.575352 L3.07841981,33.336681 Z M41.5399376,73.0061103 L41.5399376,53.7744722 L76.924534,33.774483 L76.924534,52.5595278 L41.5399376,73.0061103 Z"/></g></svg>