<svg xmlns="http://www.w3.org/2000/svg" width="80" height="80" viewBox="0 0 80 80"><g fill="none" transform="translate(1)"><path fill="#FDD26E" d="M38,48.0583739 L38,4.94162611 C38,3.63121689 37.4712652,2.37371931 36.5297339,1.44749845 C35.5889084,0.520547167 34.3115774,0 32.9806473,0 L5.01935275,0 C3.68833216,0 2.41105545,0.520547167 1.4702661,1.44749845 C0.528734833,2.37375494 0,3.63130597 0,4.94162611 L0,48.0583739 C0,49.3687831 0.528734833,50.6262807 1.4702661,51.5525015 C2.41109164,52.4794528 3.68842264,53 5.01935275,53 L32.9806473,53 C34.3116678,53 35.5889446,52.4794528 36.5297339,51.5525015 C37.4712652,50.6262451 38,49.368694 38,48.0583739 Z M3.16594888,48.0583739 L3.16594888,4.94162611 C3.16594888,3.9339534 3.99514276,3.11768898 5.01862893,3.11768898 L32.9799234,3.11768898 C33.4711823,3.11768898 33.9426627,3.30975643 34.289736,3.65214994 C34.637515,3.99384866 34.8326035,4.45801019 34.8326035,4.94167955 L34.8326035,48.0584273 C34.8326035,48.5420789 34.637515,49.0062582 34.289736,49.3479569 C33.9426627,49.6903505 33.4712004,49.8824179 32.9799234,49.8824179 L5.01862893,49.8824179 C4.52737005,49.8824179 4.05588964,49.6903505 3.70881636,49.3479569 C3.36103735,49.0062582 3.16594888,48.5420967 3.16594888,48.0584273 L3.16594888,48.0583739 Z"/><path fill="#FA4616" d="M45.3569236,64.9988098 C46.4849778,64.9960081 47.5806119,64.6247678 48.4756893,63.942512 C49.37008,63.2609555 50.0131696,62.3055247 50.3068663,61.2247497 L61.825951,18.5700848 C62.1767895,17.2700204 61.9925478,15.8844207 61.3155779,14.7183077 C60.6378997,13.5520334 59.5225497,12.7002491 58.2130765,12.3486041 L42.6215973,8.05749497 C41.7787282,7.82563521 40.906222,8.31596571 40.6725946,9.15162918 C40.4389312,9.987992 40.9330761,10.8537632 41.7759452,11.0855871 L57.3589308,15.3689855 C57.8615332,15.5062759 58.2900246,15.8326871 58.5526385,16.2795865 C58.8307757,16.7306819 58.910543,17.2742523 58.7743025,17.7855811 L47.254495,60.4169346 C47.1224887,60.9163745 46.7914149,61.340841 46.337515,61.593717 C45.8885486,61.8528871 45.353472,61.9229292 44.8515563,61.7898564 L22.0978312,55.7414188 C21.6806344,55.5978235 21.2224878,55.6342468 20.8342414,55.8415847 C20.4452902,56.0482142 20.1614966,56.4068527 20.0506827,56.8306378 C19.9398687,57.254423 20.0125628,57.7048191 20.251167,58.072567 C20.489764,58.4410142 20.8730768,58.6931729 21.3072246,58.769527 L44.0302284,64.8572355 C44.4650629,64.9616047 44.9112101,65.0085361 45.3580621,64.9987291 L45.3569236,64.9988098 Z"/><path fill="#FA4616" d="M76.4939042,33.4076451 L63.9744185,26.1775577 C63.2348022,25.7908027 62.3220713,26.0558293 61.9042687,26.7785514 C61.487178,27.5019697 61.7131095,28.4257192 62.4172772,28.8737488 L74.9367629,36.1114933 L74.9367629,36.1107978 C75.3656699,36.357036 75.6791731,36.7646611 75.8077633,37.2425356 C75.9363536,37.7204102 75.8696311,38.2302843 75.6214623,38.6587616 L54.1262856,75.9452993 C53.8802095,76.3744889 53.4735469,76.6881987 52.995293,76.8168736 C52.5177331,76.9455593 52.0088888,76.8787822 51.5806936,76.6311443 L31.3383196,64.9451563 C30.5917453,64.5145777 29.6387076,64.7712581 29.208377,65.5176228 C28.778776,66.2639946 29.0345933,67.2176603 29.7811783,67.6482567 L50.0235523,79.3342447 C51.1684432,79.9943583 52.5280901,80.1724305 53.8043829,79.8288046 C55.0806579,79.4858732 56.1678024,78.6490763 56.8274813,77.5033598 L78.3155399,40.255998 C78.9884231,39.1075748 79.1747241,37.7378791 78.8320185,36.4518417 C78.4900069,35.1656796 77.6482089,34.0694137 76.4942245,33.4078755 L76.4939042,33.4076451 Z"/></g></svg>