<svg xmlns="http://www.w3.org/2000/svg" width="80" height="80" viewBox="0 0 80 80"><g fill="none" fill-rule="evenodd"><path fill="#FA4616" fill-rule="nonzero" d="M76.6606159,34.4060794 C73.9812407,25.1919463 68.5369124,13.9575892 65.8715825,12.2079165 C64.6569139,11.4067446 61.3771046,10.3866367 56.1254901,9.17401633 C54.2983019,8.74938047 52.3755734,9.11009981 50.8310866,10.1663076 L48.9305692,11.4636251 L31.0669794,11.4636251 L29.1664619,10.1663076 C27.6213382,9.11010467 25.6985934,8.74938047 23.8714052,9.17401633 C18.6197907,10.3859077 15.340063,11.4066312 14.1253128,12.2079165 C11.4599829,13.9583993 6.01565455,25.1571149 3.33627939,34.4060794 C1.67894067,40.168659 -2.02949355,58.880437 1.42171673,64.9330087 C3.18635458,68.0091926 8.25227791,70.6032445 8.83090927,70.8512768 C9.02675876,70.9474683 9.24174897,70.9987288 9.4599402,71 C9.90076486,71.0006269 10.3173533,70.7993811 10.5891288,70.454485 C13.8618338,66.3150509 20.4634249,58.0792765 22.0213037,56.5408605 C23.738743,54.8783474 26.0519619,53.9607412 28.451902,53.9892544 L51.5301968,53.9892544 C53.9294836,53.9607769 56.2427026,54.878396 57.9607951,56.5408605 C59.5256966,58.0786608 66.1279409,66.3150509 69.39297,70.454485 C69.6641085,70.7993811 70.0806807,71.0006259 70.5215217,71 C70.7396965,70.9987285 70.9553237,70.9474683 71.1505526,70.8512768 C71.7291839,70.567765 76.7951073,68.0161589 78.5597451,64.9330087 C82.0398625,58.879951 78.3313629,40.168659 76.6592277,34.4060794 L76.6606159,34.4060794 Z M76.0890072,63.5300304 C75.1741719,65.117826 72.5809626,66.8189291 70.9087621,67.7827072 C68.5865607,64.8698261 61.7342784,56.258034 59.9698039,54.5286121 C57.7209318,52.336499 54.6843828,51.1220965 51.5315523,51.1549838 L28.4810214,51.1549838 C25.3281909,51.122077 22.2916419,52.336499 20.0427698,54.5286121 C18.278132,56.258196 11.4258497,64.8698261 9.10381162,67.7689366 C7.43177438,66.8190425 4.81674604,65.1180204 3.92356655,63.5162598 C1.32960607,58.9940038 4.00203536,42.4229828 6.06709934,35.165081 C9.00353511,25.1644052 14.2125239,15.5606459 15.7129152,14.5756449 C16.0414596,14.3560448 17.6560583,13.5263921 24.5370844,11.931695 C25.5801397,11.6899485 26.6773508,11.8956226 27.5597514,12.4987186 L29.8321412,14.0510671 L29.8315032,14.0510671 C30.0694558,14.2124404 30.3508016,14.2991318 30.6391537,14.2991318 L49.373222,14.2991318 C49.6615741,14.2991318 49.94292,14.2124323 50.1808725,14.0510671 L52.4532622,12.4987186 L52.4526243,12.4987186 C53.3349106,11.8956161 54.4321871,11.6899485 55.4752914,11.931695 C62.3563174,13.5264569 63.9710305,14.3554778 64.2994605,14.5756449 C65.7999335,15.5609699 71.0088406,25.1648912 73.916696,35.1877619 C76.0104172,42.4382114 78.682933,59.0092324 76.0889725,63.5308404 L76.0890072,63.5300304 Z"/><path fill="#FDD26E" fill-rule="nonzero" d="M32.6363636 34.136363 27.8636364 34.136363 27.8636364 29.3636359C27.8636364 28.6105969 27.253039 27.9999996 26.5 27.9999996 25.746961 27.9999996 25.1363636 28.6105969 25.1363636 29.3636359L25.1363636 34.136363 20.3636364 34.136363C19.6105974 34.136363 19 34.7469604 19 35.4999996 19 36.2530383 19.6105974 36.8636357 20.3636364 36.8636357L25.1363636 36.8636357 25.1363636 41.6363629C25.1363636 42.3894018 25.746961 42.9999996 26.5 42.9999996 27.253039 42.9999996 27.8636364 42.3894018 27.8636364 41.6363629L27.8636364 36.8636357 32.6363636 36.8636357C33.3894026 36.8636357 34 36.2530383 34 35.4999996 34 34.7469604 33.3894026 34.136363 32.6363636 34.136363ZM52 27.9999996C50.14368 27.9999996 48.3632 28.7375035 47.04992 30.0499195 45.737424 31.3630395 45 33.1436794 45 34.9999996 45 36.8563193 45.737504 38.6367993 47.04992 39.9500793 48.36304 41.2625752 50.14368 41.9999996 52 41.9999996 53.85632 41.9999996 55.6368 41.2624952 56.95008 39.9500793 58.262576 38.6369593 59 36.8563193 59 34.9999996 59 33.1436794 58.262496 31.3631995 56.95008 30.0499195 55.63696 28.7374235 53.85632 27.9999996 52 27.9999996ZM52 39.1999993C50.886256 39.1999993 49.81744 38.7575033 49.03008 37.9699993 48.24272 37.1824953 47.80008 36.1136794 47.80008 35.0000794 47.80008 33.8864794 48.242576 32.8175194 49.03008 32.0301595 49.817584 31.2427995 50.8864 30.8001595 52 30.8001595 53.1136 30.8001595 54.18256 31.2426555 54.96992 32.0301595 55.75728 32.8176634 56.19992 33.8864794 56.19992 35.0000794 56.19992 36.1136794 55.757424 37.1826393 54.96992 37.9699993 54.182416 38.7573593 53.1136 39.1999993 52 39.1999993Z"/></g></svg>