<svg xmlns="http://www.w3.org/2000/svg" width="24" height="24" viewBox="0 0 24 24"><path fill="#FFF" d="M21.5156284,6.5 C21.5468748,6.64102273 21.5624981,6.87018958 21.5624981,7.18749618 C21.5624981,9.05610084 21.2500026,10.9158575 20.6249961,12.7668272 C20,14.6177978 19.1171923,16.3100889 17.9765652,17.8437503 C16.8359303,19.3774117 15.3593806,20.6201874 13.5468774,21.5721151 C11.7343665,22.5240432 9.73438452,23 7.5468751,23 C4.79686142,23 2.28126116,22.1714827 0,20.5144232 C0.34375169,20.54968 0.734372826,20.5673079 1.1718751,20.5673079 C3.45313626,20.5673079 5.5,19.7740467 7.31249961,18.1874997 C6.21874452,18.1874997 5.25781626,17.8261258 4.42968774,17.103365 C3.60155845,16.3806051 3.03125187,15.4727621 2.71875019,14.3798074 C3.03125187,14.4150641 3.32812335,14.4326921 3.60937471,14.4326921 C4.0468769,14.4326921 4.4843729,14.3798082 4.9218751,14.2740388 C4.17187123,14.097754 3.5,13.745195 2.90624981,13.2163478 C2.31249677,12.6875005 1.843752,12.0440742 1.5,11.2860601 C1.156248,10.5280373 0.98437471,9.70834025 0.98437471,8.82692526 L0.98437471,8.72115057 C1.67187871,9.179493 2.40624619,9.42628605 3.18750039,9.46153846 C1.71874297,8.33333042 0.98437471,6.78205856 0.98437471,4.80769667 C0.98437471,3.820507 1.21874787,2.88622213 1.68750039,2.00480715 C2.906256,3.73238471 4.3984289,5.10736834 6.16406245,6.12981042 C7.9296929,7.15225251 9.8124929,7.71634342 11.8124981,7.82211811 C11.7499974,7.39903682 11.718751,6.97596427 11.718751,6.55288298 C11.718751,5.03685479 12.1953058,3.73237598 13.1484387,2.63942035 C14.1015639,1.54646471 15.2499948,1 16.5937471,1 C18.0312542,1 19.2343665,1.58172586 20.2031226,2.74519504 C21.3281342,2.49839325 22.3749987,2.05769449 23.3437471,1.42308129 C22.968751,2.72756883 22.2500052,3.74999345 21.1875019,4.49038134 C22.1250039,4.34935424 23.0624981,4.04968258 24,3.59134888 C23.3124929,4.71955692 22.4843768,5.68909419 21.5156284,6.5 Z"/></svg>