<svg xmlns="http://www.w3.org/2000/svg" width="24" height="24" viewBox="0 0 24 24"><path fill="#FFF" d="M23.9341067,3.85395844 L20.2935743,20.7701181 C20.0080396,21.9758883 19.3477604,22.2950579 18.3127015,21.7276366 L12.7983673,17.6847819 L10.1215101,20.2381641 C9.76459174,20.5928016 9.38982962,20.7701181 8.99722379,20.7701181 L9.42552588,15.1845952 L19.65113,6.03497956 C19.9009685,5.78672711 19.9009685,5.64487108 19.65113,5.60941146 C19.436979,5.53848345 19.2049842,5.59168166 18.9551458,5.7689973 L6.32036489,13.6951174 L0.859569793,11.9928626 C0.252811589,11.815547 -0.0327173121,11.5495735 0.00297434332,11.1949334 C0.0386660252,10.8402933 0.413422664,10.5388603 1.12725551,10.2906078 L22.3815271,2.0985142 C22.9169003,1.92118977 23.3451936,1.98325288 23.6664246,2.28469475 C23.9876467,2.58613662 24.0768741,3.10921866 23.9341067,3.85395844 Z"/></svg>