<svg xmlns="http://www.w3.org/2000/svg" width="24" height="24" viewBox="0 0 24 24"><path fill="#FFF" d="M0,0 L24,0 L24,24 L0,24 L0,0 Z M19.9285736,5.67857253 L19.9285736,5.41071041 L15.4821456,5.41071041 L12.3214275,13.3392841 L8.67857165,5.41071041 L4.01785747,5.41071041 L4.01785747,5.67857253 L5.51785703,7.49999779 C5.69642942,7.64285641 5.76785696,7.82142525 5.73214319,8.03571318 L5.73214319,15.1607146 C5.76785696,15.4107104 5.69642942,15.6428558 5.51785703,15.8571429 L3.80357132,17.8928569 L3.80357132,18.1607146 L8.62500011,18.1607146 L8.62500011,17.8928569 L6.9107144,15.8571429 C6.73214201,15.6428558 6.66071447,15.4107104 6.69642824,15.1607146 L6.69642824,9.00000442 L10.9285692,18.1607146 L11.4107104,18.1607146 L14.9999956,9.00000442 L14.9999956,16.3392858 C14.9999956,16.4821436 14.9642853,16.5892858 14.892856,16.6607142 L13.6071462,17.9464285 L13.6071462,18.2142862 L19.9285736,18.2142862 L19.9285736,17.9464285 L18.6428549,16.7142857 C18.5357154,16.6071426 18.4999963,16.4821436 18.5357154,16.3392858 L18.5357154,7.28571871 C18.4999963,7.14286009 18.5357154,7.01785659 18.6428549,6.91071041 L19.9285736,5.67857253 Z"/></svg>