<svg xmlns="http://www.w3.org/2000/svg" width="80" height="80" viewBox="0 0 80 80"><g fill="none" fill-rule="evenodd"><path fill="#FA4616" fill-rule="nonzero" d="M73.4241687,55.5212415 C73.4760381,54.1923285 72.9757182,52.9007977 72.0414014,51.9546477 C70.5194429,50.4839047 67.8792828,49.8515693 63.2169434,49.9396458 C58.4172787,50.1484408 53.6485417,50.8083086 48.9730917,51.9101052 C46.0336228,52.5509289 43.1360069,53.3690318 40.2957081,54.3591024 C38.0895936,55.0944739 36.5675847,55.6164616 34.7947931,55.6164616 L34.7284786,55.6164616 C33.5748614,55.6788362 32.4679046,55.152917 31.7869926,54.2192557 C31.1376301,53.187769 31.0411158,51.9015329 31.529621,50.7852809 C32.7042488,47.5799017 33.1540104,44.1544992 32.846062,40.7546457 C32.3608513,36.0114575 30.0003844,33.2834393 26.3603375,33.2538564 C25.209998,33.1829447 24.0839636,33.6057926 23.2638773,34.4160123 C21.9329809,35.7987797 21.9106592,37.9017572 22.0065181,40.1150994 C22.0872778,42.1301013 19.896212,44.1819139 18.5869986,45.4097741 C15.6455126,48.1897305 13.3802322,52.2488131 12.8879115,55.7490133 C12.8143744,56.271001 12.7631606,56.7489841 12.7112879,57.2197563 C12.7014391,57.9984601 12.5386143,58.7679697 12.233288,59.4843644 C10.7658227,60.8080331 9.22154255,62.043121 7.60826355,63.1835771 C7.2924488,63.4166605 7.08365373,63.7659577 7.027194,64.1539986 C7.027194,64.3378499 6.43166915,68.6692636 10.8143152,74.2357317 C13.9541414,78.229093 18.4398234,80.0307952 21.3300435,80.0307952 L21.4331266,80.0307952 C22.3109837,80.1128677 23.1756629,79.7681626 23.7567325,79.1043616 C24.492104,78.0820692 27.3377816,74.9935089 28.4631101,74.3907564 C31.3087876,72.8537039 34.1766524,71.4492704 36.7584367,70.3094866 C42.8619361,70.1919583 58.4447522,70.0888752 61.9745354,70.9640933 L61.9738789,70.9640933 C62.5654537,71.1118248 63.1734505,71.1860158 63.7828087,71.1847048 C66.4373737,71.1847048 69.2022025,69.8538084 70.0557377,67.1473051 C70.646657,65.583981 70.5448984,63.8434281 69.7760276,62.3602468 C69.4963175,61.8632197 69.1384815,61.4134581 68.7176137,61.0286949 C72.5047349,59.7641249 73.4088636,57.4252906 73.4239912,55.5212247 L73.4241687,55.5212415 Z M67.2542758,66.264893 C66.7395158,67.8899379 64.4302812,68.5444606 62.6877449,68.1104653 C59.7902972,67.3750938 50.8259926,67.2720073 44.1563832,67.294329 L44.8477669,67.0369574 L44.8471103,67.0369574 C51.1331499,64.6483027 57.6563573,62.9378706 64.3063008,61.9333952 C65.7770438,62.3601796 66.7625256,62.9924646 67.1965208,63.7789675 L67.1958643,63.7789675 C67.5576335,64.5642434 67.5786441,65.4636826 67.2549562,66.2647753 L67.2542758,66.264893 Z M65.6660079,58.7713314 C53.848798,60.5802612 47.5767095,62.9189947 43.8250542,64.3161165 L42.7141138,64.6542529 C37.3426242,66.6692548 32.114343,69.0481606 27.0657445,71.7729851 C25.3521189,72.6922079 22.5064413,75.9423314 21.6016402,77.0604323 C20.4027241,77.2298282 16.1671188,76.2659621 13.1225967,72.3908653 C10.3945786,68.9274756 9.97487055,66.2137447 9.93100039,65.1035439 C11.3137677,64.0667961 13.9315894,62.0590218 14.5709844,61.2355738 C15.3063559,60.2428307 15.4757519,59.0294594 15.65172,57.4995505 C15.6957112,57.0878769 15.7475805,56.6394264 15.8132395,56.1463325 C16.2176854,53.3078825 18.144073,49.8517205 20.6154255,47.5424019 C22.1820273,46.0716589 25.1012756,43.3364131 24.9540333,39.9752191 C24.9100421,38.945699 24.8292823,37.0337331 25.3952562,36.4454359 C25.4615707,36.3791214 25.6526278,36.1808367 26.3289174,36.1808367 C28.38073,36.1808367 29.5869073,37.8282033 29.9099665,41.0415162 L29.9112798,41.0415162 C30.1916454,43.9922468 29.8121366,46.9691987 28.8009949,49.7557104 C27.965159,51.7727294 28.1857705,54.0739799 29.3892921,55.8960204 C30.6124964,57.6209078 32.613833,58.6247109 34.7280051,58.5729407 C37.022028,58.5729407 38.7948196,57.9918712 41.2505401,57.1685072 L41.2511967,57.1678507 C44.0081254,56.2013624 46.8228754,55.4056485 49.67847,54.7857513 C54.1602861,53.7234042 58.7327,53.0884298 63.3340245,52.8882407 C66.9078459,52.8219262 69.1433753,53.2119386 69.9964062,54.0576075 C70.3700086,54.4508925 70.5479264,54.9899577 70.4822725,55.5283505 C70.4743937,56.1166476 70.4599491,58.0358412 65.6656312,58.7712127 L65.6660079,58.7713314 Z"/><path fill="#FDD26E" fill-rule="nonzero" d="M44.8324207,-1 C45.644607,-1 46.3031637,-0.34144331 46.3031637,0.470742992 C46.3031637,0.58117478 47.9650193,11.7956321 52.598448,16.4283885 C57.2312044,21.0612121 68.460075,22.7381281 68.5703807,22.7381281 C69.382567,22.7381281 70.0411237,23.3966847 70.0411237,24.208871 C70.0411237,25.0210573 69.382567,25.679614 68.5703807,25.679614 C68.4599489,25.679614 57.2454916,27.3414696 52.6127352,31.9748983 C47.9799116,36.6076547 46.3029956,47.8365253 46.3029956,47.946831 C46.3029956,48.7590173 45.6444389,49.417574 44.8322526,49.417574 C44.0200663,49.417574 43.3615097,48.7590173 43.3615097,47.946831 C43.3615097,47.8363992 41.6996541,36.6219419 37.0662254,31.9891855 C32.433469,27.3563619 21.2045984,25.679446 21.0942927,25.679446 C20.2821064,25.679446 19.6235497,25.0208893 19.6235497,24.208703 C19.6235497,23.3965167 20.2821064,22.73796 21.0942927,22.73796 C21.2047245,22.73796 32.4191818,21.0761044 37.0519382,16.4426757 C41.6847618,11.8099193 43.3616777,0.581048716 43.3616777,0.470742992 C43.3616777,-0.34144331 44.0202344,-1 44.8324207,-1 Z M57.032533,36.4083009 C57.6057362,35.8377367 58.5328254,35.8377367 59.1060285,36.4083009 L62.0475145,39.3497869 C62.5471755,39.9335122 62.513693,40.8028138 61.9706947,41.3464676 C61.427024,41.8894541 60.5577225,41.9229535 59.974014,41.4232874 L57.032528,38.4818015 C56.4619638,37.9085983 56.4619638,36.9815091 57.032528,36.408306 Z M44.832925,7.42794564 C43.7371794,11.1854839 41.9282496,15.7592425 39.1482932,18.5391988 L39.1482932,18.5242393 C36.3690092,21.3041957 31.8241612,23.1130415 28.03704,24.208871 C31.7945783,25.3046166 36.4051474,27.1135464 39.1482932,29.8935028 C41.891439,32.6727869 43.7370954,37.2248625 44.832925,41.004756 C45.9286705,37.2246944 47.7376004,32.6509358 50.5175568,29.9084624 C53.2968408,27.1653166 57.8416888,25.3196602 61.62881,24.2238306 C57.8712717,23.1280851 53.2607025,21.3191552 50.5175568,18.5391988 C47.774411,15.7599148 45.9287546,11.2078392 44.832925,7.42794564 Z M59.9743451,6.99377727 C60.5580704,6.49411629 61.4273719,6.5275988 61.9710258,7.07059711 C62.5140123,7.61426777 62.5475117,8.48356932 62.0478456,9.0672778 L59.1063597,12.0087638 C58.8319106,12.2851794 58.4589638,12.4407892 58.0696119,12.442759 C57.4767041,12.4401151 56.9429169,12.0816236 56.7163888,11.5340365 C56.4898608,10.985794 56.6146134,10.3554755 57.0328591,9.93526325 Z M27.694488,7.07093328 C28.2381587,6.52794674 29.1074602,6.49444741 29.6911687,6.99411344 L32.6326547,9.93559942 C33.1323157,10.5193247 33.0988331,11.3886263 32.5558348,11.9322801 C32.0121642,12.4752667 31.1428626,12.508766 30.5591541,12.0091 L27.6176682,9.06761397 C27.1180072,8.48388868 27.1514897,7.61458713 27.694488,7.07093328 Z"/></g></svg>