<svg xmlns="http://www.w3.org/2000/svg" width="80" height="80" viewBox="0 0 80 80"><g fill="none"><path fill="#FA4616" d="M24.6201648,58.0106437 C17.9219349,56.4844006 12.0222561,52.5402827 8.05047931,46.9343124 C4.07954169,41.328342 2.3159486,34.4543906 3.09805212,27.6284394 C3.88018921,20.8023204 7.15357776,14.5058836 12.290286,9.94383683 C17.4268264,5.38145439 24.0661468,2.87452729 30.9365738,2.90339463 C37.8066651,2.93224183 44.4248386,5.49490975 49.5224416,10.0999219 C54.6210517,14.7054375 57.8405993,21.029399 58.5658073,27.8617278 C58.6510348,28.6726987 59.3774327,29.2614246 60.1884204,29.1761988 C60.9993912,29.0909713 61.5881171,28.3645734 61.5028913,27.5535857 C60.6938841,20.0062867 57.1299928,13.0229079 51.4938124,7.93889934 C45.8569607,2.85472295 38.5437893,0.0284089396 30.9543642,0 C23.3637642,-0.027978039 16.0302849,2.74395293 10.3561742,7.78549964 C4.68189567,12.8270464 1.0662613,19.7835719 0.200912422,27.324661 C-0.663815469,34.8660858 1.28199432,42.460546 5.6672454,48.6562828 C10.0518923,54.851684 16.5678552,59.2126663 23.9677965,60.9042589 C24.0766263,60.9272051 24.1874232,60.9396617 24.2982268,60.9409725 C25.1098522,61.0301339 25.8395414,60.4453437 25.9286945,59.6337015 C26.017856,58.8227307 25.4324112,58.0930415 24.6214235,58.0038884 L24.6201648,58.0106437 Z"/><path fill="#FA4616" d="M31.5516831,12.5512961 C31.0973582,12.2890565 30.5374661,12.2890565 30.0831411,12.5512961 L15.3977209,21.0320843 C14.9440505,21.294324 14.6641045,21.778154 14.6634499,22.3026333 L14.6634499,39.2571607 C14.6641055,39.78164 14.9440505,40.2654701 15.3977209,40.5277097 L30.0831411,49.0084979 C30.5374661,49.2707376 31.0973582,49.2707376 31.5516831,49.0084979 L46.2371033,40.5277097 C46.6907737,40.2654701 46.9707198,39.78164 46.9713743,39.2571607 L46.9713743,22.3026333 C46.9707188,21.778154 46.6907737,21.294324 46.2371033,21.0320843 L31.5516831,12.5512961 Z M30.8174121,15.4883802 L42.8522398,22.4345 L30.8174121,29.4172075 L18.7825844,22.4638708 L30.8174121,15.4883802 Z M17.6005339,25.1807575 L29.3488701,31.9583726 L29.3488701,45.1752508 L17.6005339,38.4120693 L17.6005339,25.1807575 Z M32.2859541,45.1898523 L32.2859541,31.9729741 L44.0342903,25.195359 L44.0342903,38.4122372 L32.2859541,45.1898523 Z"/><path fill="#FDD26E" d="M74.8745119,62.1813031 C78.6703993,56.2042531 80.3671947,52.4083657 79.9338489,50.9030682 C79.8289531,50.5411859 79.5903108,50.2336983 79.2657882,50.0435767 L78.2889476,49.4705768 C78.7439271,44.1838255 79.0232186,38.0087322 78.156517,36.547407 L78.156517,36.5480625 C77.942798,36.2012517 77.5940067,35.9593366 77.1947479,35.8793473 L75.8219212,35.5928557 C74.8234469,32.6557716 73.3326166,29.3372023 71.5408275,28.7570024 C69.6317229,28.1328636 65.6666594,30.2989715 62.4654057,32.4283574 L60.7103721,31.7380084 L60.7103721,31.738664 C60.3812676,31.6160667 60.0193685,31.6160667 59.6896095,31.738664 C58.0597964,32.3037925 54.7110003,36.9742261 52.0387573,41.049556 L50.0856804,41.0784032 C49.588088,41.103971 49.1370358,41.3806376 48.8885585,41.8126742 C47.8677959,43.4575756 47.1558467,50.0732651 47.3243011,54.2289872 C44.1740686,52.9512214 40.6646728,51.7764381 39.1739768,52.1802452 L39.1746323,52.1802452 C38.7203074,52.2877627 38.344646,52.603756 38.1610698,53.0325199 L37.617575,54.4571399 C29.9739397,56.5642879 29.2613192,57.7684924 29.0194713,58.128495 C28.7769017,58.4884136 28.0354138,59.79503 30.4145862,66.8001097 L29.4305288,68.5183878 L29.4305288,68.5177323 C29.1164957,69.0684271 29.1905774,69.7581216 29.6141049,70.2287935 C31.002003,71.7707626 36.5385742,74.6344196 38.924997,75.8683305 L38.8292799,77.9242893 C38.7919101,78.509088 39.106591,79.0610919 39.6297612,79.3266211 C41.0045515,79.7245708 42.4376135,79.8864965 43.8662112,79.8039056 C47.5375663,79.8039056 52.5306091,79.1869837 54.6161066,77.4174829 C56.3927907,75.9489409 57.597163,75.0310602 58.331434,74.5243712 C59.9173251,75.4789235 61.4593446,76.4630145 62.8471588,77.4614553 C63.5106209,77.9295593 64.4278135,77.7722155 64.8959008,77.1087366 C65.3646594,76.4459291 65.2066611,75.5287365 64.5438367,75.060666 C63.1782269,74.1061137 61.6945295,73.1515613 60.1382107,72.2264638 C60.1382107,71.9255386 60.1382107,71.4115488 60.0647835,70.6477895 C63.0018676,70.2295152 71.475439,68.7386849 74.9561353,65.214184 L74.9554797,65.2135285 C75.3350685,64.8267229 75.4707785,64.2622489 75.3081984,63.7449865 L74.8745119,62.1813031 Z M44.8860447,67.3723893 C44.9666836,67.3723893 50.0922359,69.8098334 55.5624291,72.9088766 C54.8281581,73.4667883 53.8807387,74.2010594 52.7354437,75.1779839 C50.9508715,76.6465259 44.4971747,77.050333 41.8610159,76.8373021 L41.9416548,75.0822685 C41.9619778,74.4948517 41.6295855,73.9513569 41.0972516,73.702225 C38.1791327,72.2979296 35.3469445,70.7211686 32.6164634,68.9805687 L33.3507344,67.7545963 C33.5657625,67.3848425 33.6083922,66.9396813 33.4680868,66.5351861 C32.5797448,63.9874755 31.7058364,60.815089 31.6835146,59.7063818 C32.6970771,59.0894599 36.213673,57.9145927 39.165862,57.1220835 C39.6208415,56.9994862 39.9899575,56.6664494 40.1571195,56.2265414 L40.5976821,55.0589246 C42.3303939,55.3749213 46.3473178,56.8946861 49.6514535,58.3998157 C50.2054379,58.6502567 50.8564467,58.5335588 51.289138,58.1061073 L52.2731954,57.1371381 C53.8223813,57.9153311 56.5391841,61.0288584 56.884753,65.8455084 C57.0316072,67.8791454 57.1273226,69.3844429 57.1856782,70.457066 C51.6419741,67.3140504 46.4653215,64.89104 46.1716131,64.7441858 L46.1709575,64.7441858 C45.8175843,64.5697902 45.4084905,64.5448837 45.0367731,64.6753473 C44.6643845,64.8058109 44.3602032,65.0805138 44.1930244,65.4371597 C44.025191,65.7938057 44.0081392,66.2028995 44.1451651,66.5726532 C44.2828405,66.9424069 44.5627848,67.2413685 44.9227035,67.401985 L44.8860447,67.3723893 Z M59.9386843,67.6806542 C59.8947589,67.0563758 59.8508336,66.3732437 59.7918301,65.6101221 L59.7918301,65.3308306 L59.7918301,65.3314861 C61.1607127,58.7879986 63.5175632,52.4922331 66.7824258,46.658345 C66.9967993,46.3207146 67.0643355,45.9096571 66.9692747,45.5208879 C66.8742138,45.1321186 66.6244274,44.7990701 66.2776166,44.5991134 C65.9314602,44.3985022 65.5177845,44.3486724 65.1335971,44.4601272 C64.7494098,44.5715787 64.4268676,44.8351341 64.2413278,45.1898164 C61.661561,49.7416253 59.6285954,54.5819398 58.18355,59.6110669 C56.5976589,56.4025963 54.1521924,54.2142169 52.0012399,54.0010685 C51.566585,53.9591102 51.136512,54.1125199 50.8264062,54.4193428 L50.3268334,54.9110443 L50.3268334,54.9116998 C50.1694896,51.2437015 50.4559862,47.5703324 51.1791081,43.9709779 L52.9341417,43.9119744 L52.9334861,43.9119744 C53.4107706,43.8936168 53.8486983,43.6444815 54.1083197,43.2439136 C56.3111327,39.8367283 59.1525518,35.9012035 60.3935117,34.7335867 L62.1262235,35.4167189 L62.126879,35.4167189 C62.5759676,35.5943873 63.0840496,35.5393162 63.4852888,35.2698647 C66.4223728,33.3095709 69.667599,31.5985097 70.651606,31.5985097 C71.2901617,32.1564214 72.5016333,34.7557911 73.3173035,37.3330404 C73.4759581,37.8411224 73.8975035,38.2226915 74.41871,38.3315147 L75.7476147,38.6029348 C75.9534791,40.5048226 75.7476147,45.7324965 75.3070521,50.1604444 C75.2572257,50.7314639 75.5437307,51.2789028 76.0413231,51.5634307 L77.0102923,52.1285593 C76.4740143,53.8029657 74.2056288,57.8926287 72.0763267,61.2039811 C71.8422831,61.5711166 71.7832729,62.0228234 71.9143944,62.437825 L72.3182351,63.7155908 C69.3739342,65.8737601 63.191624,67.1882311 59.9312929,67.6806542 L59.9386843,67.6806542 Z"/></g></svg>