<svg xmlns="http://www.w3.org/2000/svg" width="80" height="80" viewBox="0 0 80 80"><g fill="none"><path fill="#FA4616" d="M16 48C13.8782914 48 11.8434757 47.1571533 10.3434757 45.6565243 8.84289058 44.1565243 8 42.1217086 8 40 8 37.8782914 8.84284669 35.8434757 10.3434757 34.3434757 11.8434757 32.8428906 13.8782914 32 16 32 18.1217086 32 20.1565243 32.8428467 21.6565243 34.3434757 23.1571094 35.8434757 24 37.8782914 24 40 23.9982857 42.1211235 23.1548713 44.1547689 21.6549152 45.6547689 20.154959 47.1547689 18.1212697 47.9982446 16.0001463 48L16 48ZM16 34.5601229C14.5571533 34.5601229 13.1737858 35.1332651 12.1531597 36.153306 11.1331627 37.1738736 10.5599766 38.5573435 10.5599766 40.0001463 10.5599766 41.4429491 11.1331188 42.8263604 12.1531597 43.8469865 13.1737273 44.8669836 14.5571972 45.4401697 16 45.4401697 17.4428028 45.4401697 18.8262142 44.8670275 19.8468403 43.8469865 20.8668373 42.826419 21.4400234 41.4429491 21.4400234 40.0001463 21.4383091 38.5578701 20.8645992 37.1751024 19.844646 36.1556466 18.8252194 35.1356495 17.442364 34.5618783 16.0001463 34.5602692L16 34.5601229ZM64 48C61.8782914 48 59.8434757 47.1571533 58.3434757 45.6565243 56.8428906 44.1565243 56 42.1217086 56 40 56 37.8782914 56.8428467 35.8434757 58.3434757 34.3434757 59.8434757 32.8428906 61.8782914 32 64 32 66.1217086 32 68.1565243 32.8428467 69.6565243 34.3434757 71.1571094 35.8434757 72 37.8782914 72 40 71.9982857 42.1211235 71.1548713 44.1547689 69.6549152 45.6547689 68.154959 47.1547689 66.1212697 47.9982446 64.0001463 48L64 48ZM64 34.5601229C62.5571533 34.5601229 61.1737858 35.1332651 60.1531597 36.153306 59.1331627 37.1738736 58.5599766 38.5573435 58.5599766 40.0001463 58.5599766 41.4429491 59.1331188 42.8263604 60.1531597 43.8469865 61.1737273 44.8669836 62.5571972 45.4401697 64 45.4401697 65.4428028 45.4401697 66.8262142 44.8670275 67.8468403 43.8469865 68.8668373 42.826419 69.4400234 41.4429491 69.4400234 40.0001463 69.4383091 38.5578701 68.8645992 37.1751024 67.844646 36.1556466 66.8252194 35.1356495 65.442364 34.5618783 64.0001463 34.5602692L64 34.5601229Z"/><path fill="#FDD26E" d="M30.4264542 45C29.9588799 44.9938082 29.5229644 44.7590754 29.2569712 44.3695526 27.7270589 42.2136386 33.3245589 31.634515 38.2068583 27.4793263 40.1348151 25.8339666 45.1604105 24.8060852 48.3134911 28.6017532L48.3134911 28.6011904C49.6945348 30.2616807 50.2698796 32.4615459 49.8810755 34.5971414 49.6289712 36.2345755 48.8531968 37.7431821 47.6732082 38.8903802 44.202545 41.8473586 41.3538262 42.1433447 38.5989321 42.4840024 36.2916959 42.7423778 34.1087065 42.9945568 31.3282239 44.7158583 31.0589041 44.8920521 30.7468231 44.989984 30.4263973 44.9995668L30.4264542 45ZM42.7220471 28.5576435C41.6669592 28.5255577 40.6284755 28.8323312 39.7556209 29.4340735 35.9616887 32.687038 32.9514775 38.5564673 31.8569975 41.570222 33.906642 40.6662109 36.0946071 40.1263173 38.3252197 39.97501 40.9312736 39.678923 43.1824992 39.4267441 46.0495565 36.9804208 46.7820009 36.2210739 47.2567969 35.2449973 47.4056228 34.1940595 47.6677351 32.7901864 47.2923394 31.3412669 46.3844114 30.2481072 45.4764862 29.1555238 44.1314798 28.5345872 42.7221182 28.5577876L42.7220471 28.5576435ZM29.0172434 67.999981C26.4035518 68.0056659 23.9515061 66.7336932 22.4503194 64.5943275 20.9497178 62.4543473 20.5885377 59.716068 21.4840273 57.2601156 22.3788879 54.8041633 24.4177927 52.9408051 26.9434202 52.2687791 29.167406 51.6773552 31.5376778 52.0722034 33.4502207 53.3521833 35.3621785 54.6321633 36.6307705 56.6732558 36.9313882 58.9543995 37.231962 61.2361283 36.5359626 63.5359962 35.0206007 65.2679919 33.5058094 66.9994024 31.3182488 67.9948611 29.0171703 67.999981L29.0172434 67.999981ZM27.6092409 54.7459425C26.2155304 55.1196528 25.0275858 56.0322126 24.3063959 57.2819119 23.5852499 58.5321816 23.3909675 60.0172655 23.7652548 61.411054 24.1395421 62.80474 25.052118 63.9926638 26.3024389 64.7132559 27.5527598 65.433848 29.0378405 65.6280978 30.4316533 65.2532465 31.8253638 64.8783952 33.0128695 63.9652649 33.7327428 62.7149366 34.4533183 61.4646668 34.6470302 59.9789978 34.2716019 58.5857945 33.895603 57.1943905 32.9830272 56.0087195 31.7338326 55.2892976 30.4852525 54.5693053 29.0017956 54.3738853 27.6092994 54.745884L27.6092409 54.7459425Z"/><path fill="#FA4616" d="M52.0061282,67.9997511 C49.3954274,68.0014668 46.9476758,66.7296271 45.4493631,64.5920334 C43.9504648,62.4543225 43.5895755,59.719745 44.4817114,57.2663991 C45.3738765,54.8130531 47.4068909,52.9488147 49.9284308,52.2728928 C52.4505564,51.5969417 55.143537,52.1939752 57.1428489,53.8724428 C59.1427464,55.5509015 60.19789,58.0991137 59.9692048,60.7000294 C59.7410173,63.300945 58.2580187,65.6260459 55.9962019,66.9306029 C54.7826331,67.6294215 53.4065835,67.9982871 52.0060696,68 L52.0061282,67.9997511 Z M52.0061282,54.5493894 C50.1412164,54.5505331 48.4060198,55.5038344 47.4051926,57.0771058 C46.4043801,58.650304 46.2762754,60.6255125 47.0649172,62.3153904 C47.8541301,64.0046826 49.4508858,65.1741138 51.2998393,65.4172817 C53.1487929,65.6597469 54.9932079,64.9414866 56.1912432,63.5129301 C57.3893663,62.0838319 57.7753494,60.1423975 57.2137969,58.3643878 C56.6527715,56.5859389 55.2223909,55.2174057 53.4216047,54.7353155 C52.9515117,54.6095036 52.4671148,54.5471641 51.9804194,54.5493894 L52.0061282,54.5493894 Z"/><path fill="#FA4616" d="M40.0025469,80 C29.3970902,79.9882815 19.2285155,75.7707739 11.7295202,68.2713081 C4.23023911,60.7725566 0.0117149479,50.6058426 0,40.0002777 C0,23.3747976 13.0197359,23.0262311 21.638366,22.7933772 C25.7445981,22.680656 29.6265318,22.5746375 30.4635791,20.9184036 C32.276253,17.2934547 31.4201046,13.5870783 30.6700622,10.2935533 C29.9947955,7.36216603 29.357488,4.59391931 30.9825799,2.55594801 C32.3894737,0.793687122 35.1708166,0 40.0020897,0 C48.8257313,-0.0221942429 57.4045019,2.90137172 64.3777532,8.30643844 C64.9252128,8.72718966 65.0273471,9.51233574 64.606009,10.0592709 C64.1846709,10.6066918 63.4000265,10.7088189 62.8526242,10.2875105 C56.3153975,5.22001049 48.2732286,2.47962052 40.0013325,2.50019166 C36.1696873,2.50019166 33.7884099,3.05041248 32.9323615,4.12516877 C32.0763131,5.19992506 32.5450682,7.31869521 33.1008996,9.75008953 C33.9073023,13.2500402 34.9074303,17.5998361 32.6946195,22.0312023 C31.1883915,25.0373028 26.7941431,25.1561582 21.7001409,25.293442 C12.6996321,25.5372957 2.49905554,25.8124061 2.49905554,40.0060919 C2.50575235,48.0908352 5.12534685,55.9572958 9.96762056,62.4314903 C14.8094657,68.9062563 21.6144218,73.642761 29.3687172,75.9351573 C37.1224412,78.2275535 45.4096239,77.9524146 52.9943384,75.1516826 C60.5790528,72.3510077 67.0554189,67.1735092 71.4568105,60.3918905 C75.8593451,53.6107003 77.9521777,45.5878133 77.4231478,37.5207841 C76.8941179,29.4537548 73.7722271,21.7724345 68.5219303,15.6239497 C68.1697962,15.099957 68.2641015,14.3957241 68.7406856,13.9828299 C69.2178268,13.5693357 69.9282527,13.5760214 70.3970649,13.9990125 C77.0592986,21.7874743 80.4774918,31.8359041 79.9461761,42.0714743 C79.4154604,52.3063301 74.9748951,61.9469086 67.5426178,69.0053806 C60.1097691,76.0627097 50.2516405,79.9973686 40.0010611,79.9985114 L40.0025469,80 Z"/><path fill="#FDD26E" d="M48.4865115,31.9991439 L48.2274467,31.9991439 C47.8921942,31.9846384 47.5761295,31.8384638 47.3498054,31.5935446 C47.1234814,31.3486254 47.004959,31.0244658 47.0202023,30.693065 C47.0331836,30.3616642 47.1793689,30.0486737 47.4260077,29.8238359 C47.6726466,29.5989981 47.9994467,29.4801663 48.3352627,29.4935492 C48.3860585,29.4935492 53.5695835,29.6374899 57.4571435,26.2442415 C63.2156622,21.2453065 75.0556273,6.3613348 77.0972248,3.78616917 C74.2018552,5.33612466 57.3357747,14.3152116 51.3439099,19.0586295 C47.2920686,22.2705167 46.5459391,27.3381512 46.5397261,27.3882834 L46.5397261,27.3877255 C46.4471651,28.0784212 45.8060081,28.5638178 45.1078337,28.472323 C44.4096739,28.380824 43.9186357,27.7470347 44.0112084,27.0568817 C44.0428148,26.806935 44.8770017,20.9583239 49.7444418,17.1092869 C56.3378048,11.9101089 74.7074143,2.21246075 76.2620915,1.39977675 C76.7531152,1.07171808 77.3508279,0.938375059 77.9361147,1.02652771 C78.5219651,1.11467893 79.0525059,1.41707307 79.4227387,1.87456131 C79.8053974,2.31029705 80.0108431,2.87156318 79.9995586,3.44851168 C79.9877063,4.02596008 79.7596818,4.57829955 79.3595258,4.99889565 C78.2786928,6.37360276 65.452678,22.6008597 59.1313835,28.1196839 C54.9406904,31.7751908 49.7125825,32 48.4861791,32 L48.4865115,31.9991439 Z"/></g></svg>