<svg xmlns="http://www.w3.org/2000/svg" width="80" height="80" viewBox="0 0 80 80"><g fill="none" fill-rule="evenodd"><path fill="#FA4616" fill-rule="nonzero" d="M77.2799353,55.2278585 L59.6934404,50.2989584 L59.5929503,50.4004774 L53.0197618,56.971195 L52.9285964,57.0830751 C50.2059677,59.8066199 43.4638415,54.6725126 34.3950426,45.6020211 C25.3273045,36.534765 20.1928712,29.7940579 22.9154999,27.0705131 L23.027386,26.9793526 L29.6005745,20.4075742 L29.7010646,20.3060552 L24.7708417,2.72129066 C21.1427917,-0.90656648 15.2721401,-0.907627257 11.6440901,2.72129066 L11.7673695,2.59698087 L1.80030999,12.5677537 C-3.64256061,18.0095395 3.35116876,40.3707174 21.4909678,58.5100031 C39.6298917,76.6487584 61.9935843,83.6414 67.4356593,78.2006751 L77.2886792,68.3471181 C80.9063861,64.7163438 80.9042644,58.8518385 77.2793556,55.2271637 L77.2799353,55.2278585 Z M73.999043,65.0742553 L64.1542445,74.9185305 C60.5261946,78.5463876 41.0996842,71.5529504 24.7734593,55.2267977 C8.44856042,38.9009102 1.45475149,19.4733109 5.08174064,15.8454537 L14.9265391,6.00117849 L14.8871716,6.04157818 C16.7011436,4.22770265 19.6370528,4.22664187 21.4521387,6.04157818 L24.7733426,18.648647 L17.9991262,25.4225033 C14.3660372,29.0553991 20.2326842,37.9996051 31.1165955,48.8829114 C41.9994194,59.7662176 50.9441008,65.6325793 54.5771898,61.9996835 L61.3514062,55.2258271 L73.9591451,58.5468545 C75.7752122,60.36073 75.7731171,63.297544 73.9591451,65.1114726 L73.999043,65.0742553 Z"/><path fill="#FDD26E" fill-rule="nonzero" d="M39.965123,13.4995455 C39.9661589,13.4985094 39.9671948,13.4974735 39.9682307,13.4954018 C43.5984024,9.87284859 52.4009321,12.8086018 59.655706,20.0610807 C66.9096843,27.315469 69.8444797,36.1177961 66.2217339,39.7475096 C66.2196618,39.7485457 66.2196618,39.7495816 66.21759,39.7506174 C65.3121423,40.6570513 65.3121423,42.1280307 66.2186259,43.0334569 C67.1240737,43.9388565 68.594097,43.9398908 69.4995182,43.0334569 C74.9415932,37.5908756 72.0055248,25.849666 62.935612,16.7802883 C53.8657522,7.71091066 42.1228577,4.77600605 36.6810479,10.216731 C35.7745659,11.1231649 35.7756002,12.5920758 36.6810479,13.4974489 C37.5885643,14.404917 39.0575533,14.404917 39.9651227,13.4995208 L39.965123,13.4995455 Z"/><path fill="#FDD26E" fill-rule="nonzero" d="M56.3709104,39.7537748 C57.2763582,40.6591745 58.7453471,40.6602087 59.6518027,39.7537748 C62.3723098,37.0334124 60.1697811,30.4284847 54.7290056,24.986699 C49.2869307,19.5449133 42.6816519,17.3427404 39.960084,20.0631028 C39.053602,20.9695367 39.0546363,22.4394819 39.960084,23.3438207 C40.8665661,24.2502546 42.3355551,24.2512889 43.2420371,23.3448566 C44.1485192,22.4384227 47.8179417,24.639747 51.4459917,28.267392 C55.0740417,31.8952491 57.2744752,35.5634158 56.3679931,36.4698497 C55.4625454,37.3773178 55.4646405,38.847263 56.3711011,39.7537499 L56.3709104,39.7537748 Z"/></g></svg>