<svg xmlns="http://www.w3.org/2000/svg" width="80" height="80" viewBox="0 0 80 80"><g fill="none" transform="translate(3)"><path fill="#FA4616" d="M64.7496221,24.5823364 L64.5720591,24.5823364 C63.5376378,15.4841692 58.0682302,7.48415072 49.9593223,3.20696538 C41.8505907,-1.06898846 32.1484086,-1.06898846 24.0402055,3.20696538 C15.9314738,7.48362294 10.4620486,15.4834655 9.42746869,24.5823364 L9.24990574,24.5823364 C6.79630217,24.5823364 4.44400709,25.5554347 2.70890097,27.2872444 C0.974534831,29.0197402 0,31.3686208 0,33.8186078 L0,46.1336363 C0,48.5836233 0.974534831,50.9324511 2.70890097,52.6649997 C4.44395424,54.3968094 6.79630217,55.3699077 9.24990574,55.3699077 L10.7915567,55.3699077 C11.2003673,55.3699077 11.592669,55.2077223 11.8817242,54.9190897 C12.1707793,54.6304571 12.3332077,54.2387372 12.3332077,53.8305292 L12.3332077,27.6610935 C12.3332077,18.8618297 17.0346264,10.7307441 24.6664153,6.33146405 C32.2982042,1.93112842 41.7010417,1.93112842 49.3328306,6.33146405 C56.9646195,10.731096 61.6660383,18.8623575 61.6660383,27.6610935 L61.6660383,53.8305292 C61.6660383,59.5571934 55.8999113,66.9921279 46.1491011,70.2557864 C45.8903152,68.6799906 45.0788959,67.247049 43.8607626,66.2129385 C42.6425764,65.1779835 41.096186,64.6089588 39.4972737,64.6062143 L34.5019722,64.6062143 C32.7118952,64.608276 30.9954651,65.3195535 29.7297256,66.5833042 C28.4640566,67.8471076 27.7516553,69.5610781 27.7497172,71.3485165 L27.7497172,73.2576978 C27.751782,75.0451362 28.4641095,76.7590363 29.7297256,78.0229101 C30.9953946,79.2867135 32.7118952,79.9980648 34.5019722,80 L39.4972737,80 C41.2557248,79.9986256 42.9445814,79.3127862 44.2055638,78.0888835 C45.4664052,76.8642595 46.1993149,75.1976667 46.2497049,73.4425992 C57.3881771,70.0710962 63.7707882,62.0429291 64.6420413,55.3694151 L64.7500943,55.3694151 C67.2036978,55.3694151 69.5559929,54.3963168 71.291099,52.6645071 C73.0254652,50.9320113 74,48.5831307 74,46.1331437 L74,33.8181152 C74,31.3681282 73.0254652,29.0193004 71.291099,27.2867518 C69.5560458,25.5549421 67.2036978,24.5818438 64.7500943,24.5818438 L64.7496221,24.5823364 Z M3.08358381,46.1336363 L3.08358381,33.8186078 C3.08358381,32.1857757 3.73327958,30.6195152 4.88951779,29.4643655 C6.04644315,28.3098316 7.61498049,27.6610935 9.25018764,27.6610935 L9.25018764,52.2911506 C7.61494526,52.2911506 6.04637267,51.6424125 4.88951779,50.4878785 C3.73327958,49.3326585 3.08358381,47.7664332 3.08358381,46.1336363 Z M43.1665087,73.2583663 C43.1644439,74.2294063 42.7769731,75.1599827 42.0894144,75.8464575 C41.4018733,76.5329852 40.4699938,76.9199058 39.4975027,76.9219642 L34.5022013,76.9219642 C33.5297278,76.9199025 32.5977778,76.5330028 31.9102896,75.8464575 C31.2227485,75.1599299 30.8352567,74.2294239 30.8331953,73.2583663 L30.8331953,71.349185 C30.8352601,70.378145 31.2227309,69.4475687 31.9102896,68.7610938 C32.5978307,68.0745662 33.5297102,67.6876456 34.5022013,67.6855872 L39.4975027,67.6855872 C40.4699762,67.6876489 41.4019262,68.0745486 42.0894144,68.7610938 C42.7769555,69.4476215 43.1644473,70.3781275 43.1665087,71.349185 L43.1665087,73.2583663 Z M70.9162259,46.1336363 C70.9162259,47.7664684 70.2665301,49.3327289 69.1102919,50.4878785 C67.9533666,51.6424125 66.3848292,52.2911506 64.7496221,52.2911506 L64.7496221,27.6610935 C66.3848645,27.6610935 67.953437,28.3098316 69.1102919,29.4643655 C70.2665301,30.6195856 70.9162259,32.1858109 70.9162259,33.8186078 L70.9162259,46.1336363 Z"/><path fill="#FDD26E" d="M16.9584424 25.3529053C16.1070987 25.3529053 15.4167915 26.042195 15.4167915 26.8922839L15.4167915 53.8305292C15.4167915 54.680618 16.1070987 55.3699077 16.9584424 55.3699077 17.8097861 55.3699077 18.5000934 54.680618 18.5000934 53.8305292L18.5000934 26.8922839C18.5000934 26.4840758 18.3376686 26.0923524 18.0486099 25.8037233 17.7595512 25.5150942 17.367253 25.3529053 16.9584424 25.3529053ZM58.5830182 53.8305292 58.5830182 26.8922839C58.5830182 26.042195 57.892711 25.3529053 57.0413673 25.3529053 56.1900236 25.3529053 55.4997163 26.042195 55.4997163 26.8922839L55.4997163 53.8305292C55.4997163 54.680618 56.1900236 55.3699077 57.0413673 55.3699077 57.892711 55.3699077 58.5830182 54.680618 58.5830182 53.8305292Z"/></g></svg>