<svg xmlns="http://www.w3.org/2000/svg" width="46" height="35" viewBox="0 0 46 35"><path fill="#FA4616" d="M324.2,23.84 C323,24.16 321.66,24.78 320.18,25.7 C318.7,26.62 317.32,27.7 316.04,28.94 C314.76,30.18 313.72,31.52 312.92,32.96 C312.12,34.4 311.8,35.84 311.96,37.28 C312.12,37.84 312.56,38.16 313.28,38.24 C314,38.32 314.68,38.36 315.32,38.36 C317.32,38.36 319.06,39.02 320.54,40.34 C322.02,41.66 322.76,43.52 322.76,45.92 C322.76,48.24 321.94,50.24 320.3,51.92 C318.66,53.6 316.8,54.44 314.72,54.44 C311.52,54.44 309.1,53.28 307.46,50.96 C305.82,48.64 305,45.8 305,42.44 C305,39.8 305.54,37.26 306.62,34.82 C307.7,32.38 309.12,30.16 310.88,28.16 C312.64,26.16 314.68,24.44 317,23 C319.32,21.56 321.72,20.56 324.2,20 L324.2,23.84 Z M350.12,23.84 C348.92,24.16 347.58,24.78 346.1,25.7 C344.62,26.62 343.24,27.7 341.96,28.94 C340.68,30.18 339.64,31.52 338.84,32.96 C338.04,34.4 337.72,35.84 337.88,37.28 C338.04,37.84 338.48,38.16 339.2,38.24 C339.92,38.32 340.6,38.36 341.24,38.36 C343.24,38.36 344.98,39.02 346.46,40.34 C347.94,41.66 348.68,43.52 348.68,45.92 C348.68,48.24 347.86,50.24 346.22,51.92 C344.58,53.6 342.72,54.44 340.64,54.44 C337.44,54.44 335.02,53.28 333.38,50.96 C331.74,48.64 330.92,45.8 330.92,42.44 C330.92,39.8 331.46,37.26 332.54,34.82 C333.62,32.38 335.04,30.16 336.8,28.16 C338.56,26.16 340.6,24.44 342.92,23 C345.24,21.56 347.64,20.56 350.12,20 L350.12,23.84 Z" transform="translate(-305 -20)"/></svg>