<svg xmlns="http://www.w3.org/2000/svg" width="80" height="80" viewBox="0 0 80 80"><g fill="none" transform="translate(2 5)"><path fill="#FDD26E" d="M73.9515927,48.7514771 C72.2140828,45.7877647 69.4339983,43.5519256 66.1344256,42.4662642 C62.8355383,41.3798953 59.2462379,41.518732 56.0436409,42.8558052 L42.2136375,19.3384764 C43.8225775,17.8599387 44.5849162,15.6957414 44.2502986,13.5559189 C43.9156639,11.4160963 42.5268382,9.57695732 40.5412349,8.64189041 C38.554775,7.70751414 36.2270154,7.79766867 34.321597,8.88338058 C32.4168639,9.96909248 31.1799953,11.9102617 31.0180836,14.069793 C30.8561188,16.2286504 31.7897601,18.3270342 33.511867,19.6759832 C35.2346421,21.0248985 37.5235086,21.4506058 39.6276758,20.8123649 L53.7575158,44.8822103 C53.7535,45.140815 53.8204283,45.3954611 53.9522725,45.6191798 C54.1490338,45.9593649 54.4749818,46.2094123 54.8591495,46.3127228 C55.2433172,46.4166886 55.6529111,46.3660222 55.9989224,46.1719086 L56.0966366,46.1205835 L56.2391926,46.1205835 L56.2385234,46.1205835 C58.8440173,44.714412 61.9100601,44.3801563 64.7651893,45.1901658 C67.6210039,46.0001753 70.0337458,47.8887376 71.4774159,50.443116 C72.9203835,52.9974945 73.2764352,56.0098889 72.4672706,58.820817 C71.658106,61.6324188 69.7500661,64.0151465 67.159307,65.446973 C64.5692333,66.8794565 61.5073025,67.2446733 58.6434352,66.4642605 C55.7795679,65.6832075 53.3467798,63.8190874 51.8763814,61.2798695 C51.4453706,60.6133121 50.5565695,60.3994478 49.8611371,60.7942613 C49.165088,61.1897318 48.9100899,62.0536959 49.282881,62.7538422 C51.1293601,66.0497383 54.2476601,68.4759261 57.9339363,69.4859534 C61.6210691,70.4959975 65.5657186,70.0051168 68.8800261,68.1232252 C72.1943336,66.2413335 74.5990227,63.1276668 75.5514749,59.4835842 C76.5045268,55.8388278 75.9249342,51.9710433 73.9445395,48.7514552 L73.9515927,48.7514771 Z M33.886577,14.4819737 C33.886577,13.5048279 34.2814532,12.5672006 34.9841843,11.876218 C35.6869155,11.1852354 36.6406527,10.7970925 37.6345681,10.7970925 C38.6284834,10.7970925 39.5821349,11.1853196 40.2849518,11.876218 C40.9877686,12.5671164 41.3825591,13.5047943 41.3825591,14.4819737 C41.3825591,15.4591532 40.987683,16.3967468 40.2849518,17.0877294 C39.5822206,17.7787121 38.6284834,18.166855 37.6345681,18.166855 C36.6406527,18.166855 35.6870012,17.7786278 34.9841843,17.0877294 C34.2813675,16.3968311 33.886577,15.4591532 33.886577,14.4819737 Z"/><path fill="#FA4616" d="M29.3724296,25.3625702 L15.5434279,48.9805796 C14.9665499,48.8131971 14.3689247,48.7242398 13.7673249,48.7150119 C11.6418947,48.7084222 9.63810375,49.688327 8.35866539,51.3595542 C7.07977527,53.0307308 6.6748882,55.1974807 7.26715097,57.2073733 C7.85874559,59.2172659 9.37784735,60.8350996 11.3669046,61.5731623 C13.3551052,62.3112251 15.5811018,62.0832101 17.3726239,60.958335 C19.1648312,59.832785 20.3132077,57.9421465 20.4725378,55.8551579 C20.6318149,53.7688442 19.7832379,51.7299352 18.1824665,50.3533426 L32.6785991,25.6286608 C33.0861588,24.9255189 32.8418919,24.0292998 32.1311714,23.6214674 C29.5500228,22.1532538 27.6661577,19.7354614 26.8952053,16.8997819 C26.1235847,14.0641025 26.5271355,11.0433591 28.0175064,8.50104909 C29.5078774,5.95873908 31.9625556,4.10303834 34.8416345,3.34253844 C37.7207135,2.58141435 40.7891041,2.97811255 43.3716233,4.44435232 C45.9541426,5.91125001 47.8393782,8.32715306 48.6130718,11.161989 C49.3866968,13.9969936 48.9851677,17.0184118 47.4968012,19.5620714 C47.2779707,19.9014454 47.2083622,20.3146256 47.3060676,20.7054024 C47.4031065,21.0961792 47.6580845,21.4309476 48.0114377,21.6319369 C48.365459,21.8335841 48.7870672,21.8836711 49.1792421,21.7716408 C49.5720852,21.6596138 49.9006651,21.3946974 50.0900624,21.0381835 C51.9364078,17.8915899 52.4699069,14.1616314 51.5777607,10.6354626 C50.6863513,7.10861898 48.4391278,4.06071487 45.3097463,2.1338227 C42.1810501,0.206930536 38.4146906,-0.448806625 34.8042348,0.305113975 C31.193779,1.05965877 28.0215668,3.16373661 25.9562709,6.17604501 C23.8909751,9.18767861 23.0939816,12.8714133 23.7325015,16.4502165 C24.3709529,20.0298632 26.3960565,23.2252112 29.3808415,25.3629784 L29.3724296,25.3625702 Z M13.7673249,59.0485996 C12.7735158,59.0485996 11.8198991,58.6597965 11.1171331,57.9678732 C10.4143672,57.2759499 10.0196053,56.336881 10.0196053,55.3582519 C10.0196053,54.3796228 10.4144528,53.4406382 11.1171331,52.7486305 C11.8198134,52.0566229 12.7734815,51.6679042 13.7673249,51.6679042 C14.7611682,51.6679042 15.7147507,52.0567072 16.4175166,52.7486305 C17.1202826,53.4405539 17.5150445,54.3796228 17.5150445,55.3582519 C17.5150445,56.336881 17.1201969,57.2758655 16.4175166,57.9678732 C15.7148363,58.6598809 14.7611682,59.0485996 13.7673249,59.0485996 Z"/><path fill="#FA4616" d="M54.8634501,57.4737924 C55.3517484,59.6119219 56.8694494,61.3712681 58.9170044,62.1724561 C60.9645595,62.9744357 63.276822,62.7152328 65.0946374,61.479682 C66.911946,60.244148 68,58.1934132 68,56.000041 C68,53.8066688 66.9118785,51.7559509 65.0946374,50.5204 C63.2766531,49.2848661 60.9645595,49.0256463 58.9170044,49.8276259 C56.8694494,50.6289486 55.3518159,52.3881601 54.8634501,54.5262896 L26.5649247,54.5262896 C25.748673,54.5262896 25.08682,55.1861708 25.08682,56.0000002 C25.0795614,56.0953869 25.0795614,56.1914369 25.08682,56.2874885 C25.0102761,59.2032267 23.7815944,61.9710896 21.6667391,63.9876177 C19.5524582,66.0041458 16.7242949,67.1047899 13.7991679,67.0508945 C10.8733653,66.9969469 8.08861602,65.7916634 6.05035189,63.6989408 C4.01276345,61.6054434 2.88686999,58.7942958 2.91997954,55.8772101 C2.95231371,52.9607982 4.14008317,50.1745772 6.22400807,48.1270593 C8.308558,46.0797098 11.1194908,44.93696 14.0454624,44.9474022 C14.861714,44.9474022 15.5235671,44.2875211 15.5235671,43.4737014 C15.5235671,42.6598816 14.861714,42.0000002 14.0454624,42.0000002 C10.4062842,41.9993426 6.90967972,43.4066016 4.29132284,45.9262765 C1.67229025,48.4453787 0.137426342,51.8803649 0.0087045391,55.5060059 C-0.119309463,59.131647 1.16875489,62.6653291 3.60227266,65.3626228 C6.03579044,68.0599165 9.42499159,69.7099562 13.0542032,69.9652854 C16.6840904,70.2205472 20.2719151,69.0606688 23.0610564,66.7303856 C25.8503666,64.4000856 27.6227408,61.081648 28.0060345,57.4736914 L54.8634501,57.4737924 Z M61.3446436,52.3158393 C62.324551,52.3158393 63.2648283,52.7040037 63.9577638,53.3947905 C64.6506992,54.0855772 65.0399391,55.0231036 65.0399391,56.0001252 C65.0399391,56.9771468 64.6506148,57.914589 63.9577638,58.60546 C63.2649127,59.296331 62.3245848,59.6844111 61.3446436,59.6844111 C60.3647024,59.6844111 59.4244589,59.2962467 58.7315234,58.60546 C58.0385879,57.9146732 57.6493481,56.9771468 57.6493481,56.0001252 C57.6493481,55.0231036 58.0386724,54.0856615 58.7315234,53.3947905 C59.4243744,52.7039195 60.3647024,52.3158393 61.3446436,52.3158393 Z"/></g></svg>