<svg xmlns="http://www.w3.org/2000/svg" width="1039" height="812" viewBox="0 0 1039 812"><path fill="#FFF" d="M967.533787,362.8472 C941.305736,362.8472 916.074285,373.047629 897.153993,391.909899 L842.138394,446.755897 C823.218546,465.61773 812.986943,490.771786 812.986943,516.918602 L812.986943,519.269009 L812.946,519.179 L812.945935,519.212984 C811.739574,556.296391 781.49893,586.063097 744.151024,586.654723 L743.517,586.659 L743.517117,586.675401 L743.017117,586.675401 C716.789175,586.675401 691.557653,596.875764 672.636426,615.7381 L617.621728,670.583197 C598.891216,689.256274 588.675781,714.097293 588.473345,739.962691 L588.470277,741.2468 L588.45729,741.900301 C587.845664,779.508298 557.379651,809.880904 519.657454,810.490655 L518.500451,810.5 C480.245361,810.5 449.16058,779.89219 448.54271,741.900305 L448.537,741.246 L448.530628,740.7468 C448.530628,714.599763 438.298884,689.444893 419.379176,670.5832 L364.364475,615.738097 C345.444551,596.876191 320.211499,586.675401 293.983784,586.675401 L293.964,586.671 L292.818633,586.662453 C255.095702,586.052705 224.629545,555.680233 224.017916,518.072107 L224.008542,516.918602 L224.010891,516.1345 C223.810503,490.530599 213.798506,465.931039 195.427494,447.323635 L194.862507,446.755897 L139.847808,391.909896 C121.116863,373.236388 96.1994099,363.052077 70.253661,362.850259 L68.9671168,362.8472 L68.3100904,362.834255 C30.5871599,362.224507 0.12100271,331.852033 -0.5,294.243905 L-0.5,293.0904 C-0.5,254.95096 30.2020941,223.961618 68.3100863,223.345645 L69.007,223.34 L69.4671168,223.3336 C95.6956707,223.3336 120.927824,213.132843 139.847808,194.270004 L194.862507,139.424004 C213.593073,120.750874 223.808456,95.9106774 224.010891,70.0462777 L224.011,69.762 L224.008542,69.2621998 C224.008542,30.7359863 255.335545,-0.5 293.975659,-0.5 C332.228618,-0.5 363.314605,30.1145277 363.932499,68.1086286 L363.937,68.762 L363.953609,68.7621998 L363.953609,69.2621998 C363.953609,95.408226 374.185297,120.562256 393.105062,139.424004 L448.119763,194.270004 C467.040824,213.133047 492.272234,223.3336 518.500451,223.3336 C544.728214,223.3336 569.960339,213.132759 588.88024,194.270001 L643.89584,139.424004 C662.815606,120.562257 673.047294,95.4082272 673.047294,69.2621998 L673.05,69.243 L673.059376,68.1005717 C673.671002,30.4917119 704.137025,0.119095845 741.860086,-0.49065511 L743.017117,-0.5 C781.658001,-0.5 812.983334,30.729554 812.983334,69.2540998 C812.986943,95.1467657 823.01502,120.059077 841.573406,138.856267 L842.138391,139.424001 L897.154004,194.270012 C915.884921,212.944351 940.801465,223.128721 966.747242,223.330541 L968.033787,223.3336 L968.690795,223.345645 C1006.41312,223.955399 1036.879,254.328148 1037.5,291.936876 L1037.5,293.0904 C1037.5,331.228949 1006.79791,362.218282 968.690791,362.834255 L968.008,362.839 L967.533787,362.8472 Z M69.938,224.331 L69.4671168,224.3363 C31.3770694,224.3363 0.5,255.118687 0.5,293.0904 C0.5,331.061351 31.3772081,361.8436 69.4671168,361.8436 L69.9671168,361.8436 L70.2615173,361.850289 C96.2017496,362.052086 121.126751,372.134417 139.978632,390.6328 L140.553828,391.201704 L195.568527,446.047705 C214.487331,464.908496 224.806371,490.001009 225.01086,516.126606 L225.013959,517.418602 L225.017782,518.05555 C225.620656,555.12387 255.650727,585.061567 292.835149,585.662587 L293.975659,585.671798 L293.994,585.675 L294.778168,585.678491 C320.717873,585.880291 345.643623,595.962834 364.495302,614.461005 L365.070492,615.029903 L420.085193,669.875005 C439.003862,688.735662 449.323037,713.828972 449.527529,739.954797 L449.533336,740.7468 C449.533336,778.717752 480.410543,809.5 518.500451,809.5 C556.589596,809.5 587.466664,778.717615 587.466664,740.7468 L587.466664,740.2468 L587.473376,739.954797 C587.675802,714.092867 597.789605,689.242701 616.345052,670.44844 L616.915711,669.875003 L671.930417,615.029897 C690.849995,596.169204 716.018143,585.882342 742.222727,585.678491 L742.517,585.677 L742.517117,585.663698 L743.017117,585.663698 C781.106262,585.663698 811.983334,554.881313 811.983334,516.910502 L811.983334,514.560095 L812.012,514.626 L812.014807,514.544544 C812.608785,489.253165 822.684823,465.031962 840.861714,446.621144 L841.432377,446.047703 L896.447976,391.201704 C915.366623,372.341073 940.5347,362.054142 966.739393,361.850289 L967.052,361.849 L967.533787,361.8436 C1005.62293,361.8436 1036.5,331.061213 1036.5,293.0904 C1036.5,255.118825 1005.62307,224.3363 967.533787,224.3363 L967.033787,224.3363 L966.739385,224.330511 C940.799117,224.128713 915.874998,214.046317 897.023174,195.547128 L896.447979,194.978199 L841.432374,140.132196 C822.513656,121.27149 812.194533,96.1790036 811.990043,70.054172 L811.986,69.268 L811.983334,69.2540998 C811.983334,31.6622412 781.720852,1.11636941 744.157608,0.509211164 L743.017117,0.5 C704.927071,0.5 674.050002,31.2823867 674.050002,69.2540998 L673.551,69.254 L673.575,69.262 L674.047294,69.2621998 C674.047294,95.4073576 663.917358,120.572688 645.172518,139.55876 L644.601857,140.132199 L589.586266,194.978188 C570.476916,214.029821 544.990173,224.3336 518.500451,224.3336 C492.01028,224.3336 466.524259,214.030113 447.413742,194.978196 L392.399041,140.132196 C373.480323,121.27149 363.161199,96.1790036 362.956709,70.054172 L362.955,69.762 L362.941873,69.7621998 L362.941873,69.2621998 C362.941873,31.2890617 332.063375,0.5 293.975659,0.5 C256.268064,0.5 225.626836,30.6762239 225.017782,68.1251804 L225.012,68.762 L225.013959,69.2621998 C225.013959,95.6714489 214.678344,121.080978 195.568527,140.132196 L140.553836,194.978188 C121.635494,213.839389 96.4667255,224.126651 70.2615256,224.33051 L69.938,224.331 Z M743.017117,138.0181 C769.506004,138.0181 794.993072,148.322247 814.102925,167.373501 L869.11853,222.219504 C888.228432,241.270807 898.56396,266.680364 898.56396,293.0904 C898.56396,319.499649 888.228346,344.909178 869.118527,363.960399 L814.102936,418.806388 C795.18468,437.667503 770.015936,447.954848 743.811502,448.158709 L742.517117,448.161798 L741.876603,448.165611 C704.692052,448.766633 674.662113,478.704474 674.059242,515.773531 L674.050002,516.910502 L674.047,516.929 L674.044195,517.710574 C673.84177,543.571517 663.728015,568.420868 645.172518,587.215161 L644.601857,587.788599 L589.586266,642.634586 C570.476916,661.686221 544.990173,671.99 518.500451,671.99 C492.01028,671.99 466.524259,661.686513 447.413742,642.634594 L392.399041,587.788596 C373.480323,568.927891 363.161199,543.835403 362.956709,517.710574 L362.955,517.418 L362.941873,517.418602 L362.941873,516.918602 C362.941873,478.947026 332.064942,448.1645 293.975659,448.1645 L290.88698,448.1645 L291.025,448.118 L290.810127,448.112441 C265.728945,447.33174 241.747914,437.30828 223.472296,419.375328 L222.897073,418.806396 L167.882374,363.960396 C148.772557,344.909178 138.436942,319.499649 138.436942,293.0904 C138.436942,266.680364 148.772472,241.270807 167.882374,222.219504 L222.897082,167.373496 C242.008106,148.321955 267.494449,138.0181 293.983784,138.0181 C320.472895,138.0181 345.960775,148.322383 365.070495,167.373504 L420.085193,222.219504 C439.003998,241.080296 449.32304,266.172811 449.527529,292.298405 L449.533336,293.0904 C449.533336,331.061351 480.410543,361.8436 518.500451,361.8436 C556.589595,361.8436 587.466664,331.061213 587.466664,293.0904 C587.470277,266.680364 597.805806,241.270807 616.915708,222.219504 L671.930417,167.373496 C691.041439,148.321955 716.527782,138.0181 743.017117,138.0181 Z M743.017117,139.0181 C716.789735,139.0181 691.557994,149.219022 672.636429,168.081696 L617.621728,222.927696 C598.891078,241.60091 588.675778,266.441134 588.473345,292.306299 L588.470277,293.5904 L588.45729,294.243901 C587.845664,331.851897 557.37965,362.224504 519.657454,362.834255 L518.500451,362.8436 C480.245362,362.8436 449.16058,332.235789 448.54271,294.243905 L448.537,293.59 L448.530628,293.0904 C448.530628,266.943588 438.299023,241.78953 419.379173,222.927696 L364.364475,168.081696 C345.44421,149.219449 320.21094,139.0181 293.983784,139.0181 C267.756402,139.0181 242.524661,149.219022 223.603094,168.081696 L168.588394,222.927696 C149.668545,241.789528 139.436942,266.943586 139.436942,293.0904 C139.436942,319.236426 149.66863,344.390456 168.588394,363.252204 L223.603094,418.098205 C242.524158,436.961246 267.755568,447.161798 293.983784,447.161798 L297.072464,447.161798 L296.879,447.225 L297.432938,447.248173 C334.086066,449.026316 363.333358,478.923874 363.9325,515.765078 L363.937,516.418 L363.953609,516.418602 L363.953609,516.918602 C363.953609,543.064625 374.185298,568.218657 393.105061,587.080405 L448.119763,641.926402 C467.040824,660.789447 492.272234,670.99 518.500451,670.99 C544.728215,670.99 569.960339,660.789158 588.88024,641.926399 L643.89584,587.080405 C662.815605,568.218658 673.047294,543.064626 673.047294,516.918602 L673.05,516.899 L673.059376,515.756974 C673.671002,478.148113 704.137025,447.775495 741.860086,447.165744 L743.017117,447.1564 L743.803646,447.15874 C769.486819,446.958954 794.162723,436.97706 812.827425,418.661484 L813.39691,418.098202 L868.41251,363.252204 C887.332273,344.390456 897.56396,319.236426 897.56396,293.0904 C897.56396,266.943586 887.332358,241.789528 868.412513,222.927699 L813.396908,168.081696 C794.476505,149.219311 769.244047,139.0181 743.017117,139.0181 Z" transform="translate(1 1)"/></svg>