<svg xmlns="http://www.w3.org/2000/svg" width="810" height="204" viewBox="0 0 810 204"><defs><linearGradient id="a" x1=".426%" x2="100%" y1="50%" y2="50%"><stop offset="0%" stop-color="#EF8933"/><stop offset="100%" stop-color="#E7552F"/></linearGradient></defs><g fill="none" fill-rule="evenodd"><path fill="#FFF" d="M487.182619,78.9101007 L447.272839,78.9101007 C441.714199,78.9101007 437.296503,83.3291829 437.296503,88.7451866 L437.296503,128.209761 C437.296503,133.626106 441.714199,138.187167 447.272839,138.187167 L487.182619,138.187167 C492.599963,138.187167 497.16032,133.626106 497.16032,128.209761 L497.16032,88.7451866 C497.16032,83.3291829 492.599963,78.9101007 487.182619,78.9101007 M517.115722,88.7451866 L517.115722,128.209761 C517.115722,144.744119 503.717582,158 487.182619,158 L447.272839,158 C430.73924,158 417.34076,144.744119 417.34076,128.209761 L417.34076,88.7451866 C417.34076,72.3534906 430.73924,58.9552893 447.272839,58.9552893 L487.182619,58.9552893 C503.717582,58.9552893 517.115722,72.3534906 517.115722,88.7451866 M564.388079,58.9551527 L589.64854,58.9551527 C593.523922,58.9551527 596.665865,62.0971106 596.665865,65.9725106 L596.665865,71.8926064 C596.665865,75.7683476 593.523922,78.9099642 589.64854,78.9099642 L564.388762,78.9099642 C558.979609,78.9099642 554.553721,83.3358723 554.553721,88.7450501 L554.553721,150.982506 C554.553721,154.858247 551.412119,157.999863 547.536396,157.999863 L541.615645,157.999863 C537.739922,157.999863 534.598319,154.858247 534.598319,150.982506 L534.598319,88.7450501 C534.598319,72.3605212 548.003626,58.9551527 564.388079,58.9551527 M780.066556,78.9101007 L740.156776,78.9101007 C734.598136,78.9101007 730.18044,83.3291829 730.18044,88.7451866 L730.18044,128.209761 C730.18044,133.626106 734.598136,138.187167 740.156776,138.187167 L780.066556,138.187167 C785.4839,138.187167 790.044257,133.626106 790.044257,128.209761 L790.044257,88.7451866 C790.044257,83.3291829 785.4839,78.9101007 780.066556,78.9101007 M810,88.7451866 L810,128.209761 C810,144.744119 796.601519,158 780.066556,158 L740.156776,158 C723.623177,158 710.224696,144.744119 710.224696,128.209761 L710.224696,88.7451866 C710.224696,72.3534906 723.623177,58.9552893 740.156776,58.9552893 L780.066556,58.9552893 C796.601519,58.9552893 810,72.3534906 810,88.7451866 M688.516755,78.9099642 C692.392478,78.9099642 695.534422,75.7683476 695.534422,71.8926064 L695.534422,65.9725106 C695.534422,62.0971106 692.392478,58.9551527 688.516755,58.9551527 L645.646599,58.9551527 L645.646599,46.0176991 C645.646599,42.1419579 642.504997,39 638.629274,39 L632.566886,39 C628.691504,39 625.549902,42.1419579 625.549902,46.0176991 L625.549902,58.9551527 L615.516911,58.9551527 C611.641188,58.9551527 608.499245,62.0971106 608.499245,65.9725106 L608.499245,71.8926064 C608.499245,75.7683476 611.641188,78.9099642 615.516911,78.9099642 L625.549902,78.9099642 L625.549902,127.924985 C625.549902,144.466168 639.083535,157.999863 655.6243,157.999863 L688.516755,157.999863 C692.392478,157.999863 695.534422,154.858247 695.534422,150.982506 L695.534422,145.204388 C695.534422,141.328647 692.392478,138.187031 688.516755,138.187031 L655.6243,138.187031 C650.065661,138.187031 645.646599,133.62597 645.646599,128.209966 L645.646599,78.9099642 L688.516755,78.9099642 Z M361.852148,157.999898 L349.080281,157.999898 C346.437991,157.999898 344.019589,156.515607 342.823357,154.15931 L302.769551,69.1493147 C300.399271,64.4810874 303.791041,58.9551869 309.026476,58.9551869 L316.285437,58.9551869 C318.975508,58.9551869 321.429063,60.4930602 322.601405,62.9145453 L355.463143,136.90448 L388.324881,62.9145453 C389.497223,60.4930602 391.950437,58.9551869 394.64085,58.9551869 L402.026772,58.9551869 C407.265961,58.9551869 410.657389,64.4882546 408.279942,69.1568231 L368.105319,154.166818 C366.907722,156.51902 364.491367,157.999898 361.852148,157.999898"/><path fill="url(#a)" d="M168.874639,17.3562744 L168.87396,17.3583044 C168.87396,23.7543833 166.42536,30.1506878 161.528159,35.0308078 L161.528159,35.0308078 L147.734469,48.7761633 C142.837269,53.6565089 136.418578,56.0965689 130.000113,56.0965689 L130.000113,56.0965689 C123.581422,56.0965689 117.162957,53.6565089 112.265531,48.7761633 L112.265531,48.7761633 L98.4720669,35.0308078 C93.5748667,30.1506878 91.1262666,23.7543833 91.1262666,17.3583044 L91.1262666,17.3583044 L91.1233241,17.3583044 C91.1233241,7.77264444 83.3255128,0.00203 73.7065298,0.00203 L73.7065298,0.00203 C64.0873204,0.00203 56.2895092,7.77264444 56.2895092,17.3583044 L56.2895092,17.3583044 L56.2908672,17.3583044 C56.2908672,23.7543833 53.8422671,30.1506878 48.9450669,35.0308078 L48.9450669,35.0308078 L35.1516033,48.7761633 C30.2544031,53.6565089 23.8357118,56.0965689 17.4170206,56.0965689 L17.4170206,56.0965689 L17.4170206,56.0972456 C7.79781124,56.0972456 0,63.86786 0,73.45352 L0,73.45352 C0,83.0389544 7.79781124,90.8095689 17.4170206,90.8095689 L17.4170206,90.8095689 L17.4170206,90.8104711 C23.8357118,90.8104711 30.2544031,93.2505311 35.1516033,98.1306511 L35.1516033,98.1306511 L48.9450669,111.876007 C53.8422671,116.756127 56.2908672,123.152431 56.2908672,129.548736 L56.2908672,129.548736 L56.2895092,129.548736 C56.2895092,139.13417 64.0873204,146.904784 73.7065298,146.904784 L73.7065298,146.904784 L73.7085669,146.905687 C80.1270318,146.905687 86.5459493,149.345747 91.4431495,154.225867 L91.4431495,154.225867 L105.236613,167.970997 C110.133813,172.851117 112.582414,179.247647 112.582414,185.643951 L112.582414,185.643951 L112.583093,185.643951 C112.583093,195.229386 120.380904,203 130.000113,203 L130.000113,203 C139.619096,203 147.416907,195.229386 147.416907,185.643951 L147.416907,185.643951 L147.417813,185.643951 C147.417813,179.247647 149.866413,172.851117 154.763613,167.970997 L154.763613,167.970997 L168.557077,154.225867 C173.454503,149.345747 179.872968,146.905687 186.291659,146.905687 L186.291659,146.905687 L186.291659,146.902754 C195.910642,146.902754 203.708454,139.13214 203.708454,129.546706 L203.708454,129.546706 L203.709359,129.548736 C203.709359,123.152431 206.157959,116.756127 211.055159,111.876007 L211.055159,111.876007 L224.848849,98.1306511 C229.74605,93.2505311 236.164515,90.8104711 242.583206,90.8104711 L242.583206,90.8104711 L242.583206,90.8095689 C252.202189,90.8095689 260,83.0389544 260,73.45352 L260,73.45352 C260,63.86786 252.202189,56.0972456 242.583206,56.0972456 L242.583206,56.0972456 L242.583206,56.0965689 C236.164515,56.0965689 229.74605,53.6565089 224.848849,48.7761633 L224.848849,48.7761633 L211.055159,35.0308078 C206.157959,30.1506878 203.709359,23.7543833 203.709359,17.3583044 L203.709359,17.3583044 L203.708454,17.3562744 C203.708454,7.77061444 195.910642,0 186.291659,0 L186.291659,0 C176.67245,0 168.874639,7.77061444 168.874639,17.3562744 M147.416907,73.45352 L147.417813,73.45352 C147.417813,67.0572156 149.866413,60.6609111 154.763613,55.7807911 L154.763613,55.7807911 L168.557077,42.0354356 C173.454503,37.1553156 179.872968,34.71503 186.291659,34.71503 L186.291659,34.71503 C192.710124,34.71503 199.128816,37.1553156 204.026016,42.0354356 L204.026016,42.0354356 L217.819706,55.7807911 C222.716906,60.6609111 225.165506,67.0572156 225.165506,73.45352 L225.165506,73.45352 C225.165506,79.8495989 222.716906,86.2459033 217.819706,91.1260233 L217.819706,91.1260233 L204.026016,104.871379 C199.128816,109.751724 192.710124,112.191784 186.291659,112.191784 L186.291659,112.191784 L186.291659,112.190431 C176.67245,112.190431 168.874639,119.961046 168.874639,129.546706 L168.874639,129.546706 L168.87396,129.548736 C168.87396,135.944814 166.42536,142.341119 161.528159,147.221239 L161.528159,147.221239 L147.734469,160.966594 C142.837269,165.84694 136.418578,168.287 130.000113,168.287 L130.000113,168.287 C123.581422,168.287 117.162957,165.84694 112.265531,160.966594 L112.265531,160.966594 L98.4720669,147.221239 C93.5748667,142.341119 91.1262666,135.944814 91.1262666,129.548736 L91.1262666,129.548736 L91.1233241,129.548736 C91.1233241,119.963076 83.3255128,112.192461 73.7065298,112.192461 L73.7065298,112.192461 L73.7085669,112.191784 C67.2898757,112.191784 60.8714108,109.751724 55.9739843,104.871379 L55.9739843,104.871379 L42.1805206,91.1260233 C37.2833204,86.2459033 34.8347203,79.8495989 34.8347203,73.45352 L34.8347203,73.45352 C34.8347203,67.0572156 37.2833204,60.6609111 42.1805206,55.7807911 L42.1805206,55.7807911 L55.9739843,42.0354356 C60.8714108,37.1553156 67.2898757,34.71503 73.7085669,34.71503 L73.7085669,34.71503 C80.1270318,34.71503 86.5459493,37.1553156 91.4431495,42.0354356 L91.4431495,42.0354356 L105.236613,55.7807911 C110.133813,60.6609111 112.582414,67.0572156 112.582414,73.45352 L112.582414,73.45352 L112.583093,73.45352 C112.583093,83.0389544 120.380904,90.8095689 130.000113,90.8095689 L130.000113,90.8095689 C139.619096,90.8095689 147.416907,83.0389544 147.416907,73.45352"/></g></svg>