<svg xmlns="http://www.w3.org/2000/svg" width="80" height="80" viewBox="0 0 80 80"><g fill="none" fill-rule="evenodd"><path fill="#FDD26E" fill-rule="nonzero" d="M9.99202869,60.4546773 L9.99202869,61.2040159 C9.99202869,62.5949767 10.5446723,63.9290392 11.5281813,64.9131991 C12.5123583,65.8967081 13.8464208,66.4493517 15.2373645,66.4493517 L34.7201675,66.4493517 C36.1111283,66.4493517 37.4451908,65.8967081 38.4293507,64.9131991 C39.4128597,63.929022 39.9655033,62.5949596 39.9655033,61.2040159 L39.9655033,60.4546773 C40.0257176,57.8687313 39.2255336,55.33571 37.6900832,53.253662 C36.1546157,51.1722992 33.9714798,49.6588922 31.4833332,48.952373 C33.4516529,47.1866744 34.6178807,44.6957873 34.7134534,42.0531484 C34.809797,39.4103383 33.826288,36.8418626 31.9904855,34.938457 C30.1545632,33.0343662 27.6235972,31.9590868 24.9787317,31.9590868 C22.3338663,31.9590868 19.8029003,33.0342463 17.966978,34.938457 C16.1310556,36.8418626 15.1475809,39.4103383 15.24401,42.0531484 C15.3396839,44.6959586 16.5058448,47.1868456 18.4741303,48.952373 C15.9859837,49.6588922 13.8028821,51.1722992 12.2673803,53.253662 C10.7319128,55.33571 9.93167053,57.8687313 9.99196018,60.4546773 L9.99202869,60.4546773 Z M24.9788003,34.9771657 C26.7671075,34.9771657 28.4826218,35.6876928 29.7478479,36.9521652 C31.0123546,38.2173399 31.7228475,39.9327344 31.7228475,41.7212129 C31.7228475,43.5096914 31.0123203,45.2250344 29.7478479,46.4902605 C28.4826732,47.7547672 26.7672788,48.4652601 24.9788003,48.4652601 C23.1903218,48.4652601 21.4749787,47.7547329 20.2097526,46.4902605 C18.9452459,45.2250858 18.2347531,43.5096914 18.2347531,41.7212129 C18.2347531,39.9327344 18.9452802,38.2173913 20.2097526,36.9521652 C21.4749273,35.6876585 23.1903218,34.9771657 24.9788003,34.9771657 Z M21.9814459,51.4626144 L27.9761546,51.4626144 C30.3774636,51.4090902 32.695703,52.339075 34.3937471,54.0370848 C36.0917911,55.7350946 37.0218273,58.0533683 36.9682175,60.4546773 L36.9682175,61.2040159 C36.9682175,62.445777 35.9619629,63.4520316 34.7202018,63.4520316 L15.2373987,63.4520316 C13.9956377,63.4520316 12.989383,62.445777 12.989383,61.2040159 L12.989383,60.4546773 C12.9358588,58.0533683 13.8658437,55.7351289 15.5638534,54.0370848 C17.2618632,52.3390408 19.5801369,51.4090046 21.9814459,51.4626144 Z"/><path stroke="#FA4616" stroke-linecap="round" stroke-linejoin="round" stroke-width="3" d="M69.4,37.0454545 L69.4,74.5 C69.4,76.1568542 68.0568542,77.5 66.4,77.5 L5.4,77.5 C3.74314575,77.5 2.4,76.1568542 2.4,74.5 L2.4,24.5 C2.4,22.8431458 3.74314575,21.5 5.4,21.5 L36.8788961,21.5 L36.8788961,21.5"/><path fill="#FDD26E" fill-rule="nonzero" d="M46.4589576 66.449386 61.4457292 66.449386C62.2733415 66.449386 62.9444063 65.7783211 62.9444063 64.9507088 62.9444063 64.1230965 62.2733415 63.4520316 61.4457292 63.4520316L46.4589576 63.4520316C45.6313453 63.4520316 44.9602805 64.1230965 44.9602805 64.9507088 44.9602805 65.7783211 45.6313453 66.449386 46.4589576 66.449386ZM46.4589576 57.457323 55.4510206 57.457323C56.2786329 57.457323 56.9496977 56.7862582 56.9496977 55.9586459 56.9496977 55.1310335 56.2786329 54.4599687 55.4510206 54.4599687L46.4589576 54.4599687C45.6313453 54.4599687 44.9602805 55.1310335 44.9602805 55.9586459 44.9602805 56.7862582 45.6313453 57.457323 46.4589576 57.457323Z"/><circle cx="57" cy="21" r="20" stroke="#FA4616" stroke-width="3"/><path fill="#FA4616" d="M61.5751962,11.9752234 C61.5744206,12.0222738 61.5753751,12.0690246 61.5777615,12.1152958 L61.5777615,12.1152958 C61.615585,12.828005 61.332147,13.5202757 60.8294039,14.0245245 L60.8294039,14.0245245 L58.9435955,15.9160119 C58.4386451,16.4225383 57.7466052,16.7093361 57.0340429,16.671456 L57.0340429,16.671456 C57.0091652,16.6701374 56.984049,16.6692983 56.9589327,16.6688188 L56.9589327,16.6688188 C56.9127569,16.6681595 56.8669391,16.6689986 56.8214793,16.6713961 L56.8214793,16.6713961 C56.1140475,16.708557 55.4269594,16.4254752 54.9260658,15.9221854 L54.9260658,15.9221854 L53.005715,13.9928778 C52.5078639,13.4927048 52.2612352,12.8025318 52.2921981,12.0959362 L52.2921981,12.0959362 C52.2944651,12.0442706 52.2947634,11.9921855 52.2930929,11.9395609 L52.2930929,11.9395609 C52.2597438,10.9060097 51.4309068,10.0569442 50.4029891,10.0028212 L50.4029891,10.0028212 C49.266433,9.94300424 48.3170856,10.8419972 48.2993074,11.9752234 L48.2993074,11.9752234 C48.2985915,12.0223337 48.2994267,12.0690246 48.3019323,12.1153557 L48.3019323,12.1153557 C48.3396962,12.8288441 48.0563179,13.5219539 47.5535152,14.0271617 L47.5535152,14.0271617 L45.63567,15.953892 C45.137819,16.4540651 44.4506115,16.701844 43.7471172,16.670557 L43.7471172,16.670557 C43.6956915,16.6682794 43.6437885,16.6679797 43.5914679,16.6696579 L43.5914679,16.6696579 C42.5624763,16.7029229 41.7170543,17.5357455 41.6632422,18.5686374 L41.6632422,18.5686374 C41.6614524,18.6025018 41.6604383,18.6361263 41.6604383,18.669691 L41.6604383,18.669691 L41.6604383,18.6825774 C41.6638388,19.7733083 42.5362862,20.6648092 43.6264875,20.6821309 L43.6264875,20.6821309 C43.6730809,20.6827902 43.7193163,20.6819511 43.7651938,20.6794937 L43.7651938,20.6794937 C44.4726255,20.6419133 45.159833,20.9254746 45.6607863,21.4287644 L45.6607863,21.4287644 L47.5108592,23.2874064 C48.0267272,23.8057403 48.2885688,24.5206672 48.2535492,25.2527959 L48.2535492,25.2527959 C48.2511032,25.3027233 48.2505663,25.3530703 48.2518788,25.4038967 L48.2518788,25.4038967 C48.2782479,26.4265394 49.0829231,27.2759046 50.0983722,27.3513651 L50.0983722,27.3513651 C50.1916186,27.3583178 50.2837315,27.3587374 50.3742336,27.3531033 L50.3742336,27.3531033 C51.0924635,27.3083305 51.7930942,27.5895542 52.3019224,28.1008755 L52.3019224,28.1008755 L54.179677,29.9873282 C54.6859995,30.4960123 54.9729574,31.1936774 54.934418,31.9120206 L54.934418,31.9120206 C54.9330458,31.9370143 54.9322106,31.9621878 54.931793,31.9875411 L54.931793,31.9875411 C54.914671,33.0814487 55.7942178,33.9823596 56.8964105,33.9997413 L56.8964105,33.9997413 C57.9985435,34.0172428 58.9059509,33.1446221 58.9230729,32.0507145 L58.9230729,32.0507145 C58.9237888,32.0063612 58.9230133,31.9623076 58.9208059,31.9186736 L58.9208059,31.9186736 C58.8847721,31.2070433 59.1648692,30.5158514 59.6663595,30.0120222 L59.6663595,30.0120222 L61.4364899,28.2336357 C61.9356534,27.732084 62.6191621,27.4697404 63.3251023,27.484365 L63.3251023,27.484365 C63.3283836,27.4844249 63.3316648,27.4844249 63.3350057,27.4844849 L63.3350057,27.4844849 C64.4371984,27.5019864 65.3446057,26.6293657 65.3617874,25.5353982 L65.3617874,25.5353982 C65.3621454,25.5096853 65.362026,25.4840922 65.3614295,25.4585591 L65.3614295,25.4585591 C65.345083,24.743932 65.6005411,24.0501628 66.1037018,23.5446554 L66.1037018,23.5446554 L68.2346475,21.4037108 C68.7342286,20.9017995 69.4187515,20.6247714 70.1246321,20.6546199 L70.1246321,20.6546199 C70.1425893,20.6553392 70.1606062,20.6558187 70.1786231,20.6561783 L70.1786231,20.6561783 C71.2808755,20.67356 72.1882828,19.8009992 72.2056523,18.7070916 L72.2056523,18.7070916 C72.2225865,17.613184 71.3429801,16.712273 70.240847,16.6947715 L70.240847,16.6947715 C70.2005775,16.6941122 70.1604869,16.6947115 70.1208139,16.6963898 L70.1208139,16.6963898 C69.4140981,16.7269576 68.7285014,16.4498095 68.2283833,15.9472989 L68.2283833,15.9472989 L66.2816634,13.9915592 C65.784051,13.491566 65.5373627,12.8016328 65.5680869,12.0952769 L65.5680869,12.0952769 C65.5703539,12.0436713 65.5706522,11.9916461 65.5689817,11.9390814 L65.5689817,11.9390814 C65.5353939,10.90577 64.7067359,10.0570041 63.6790568,10.0028212 L63.6790568,10.0028212 C63.643202,10.0009032 63.6074068,10 63.57191,10 L63.57191,10 C62.4832598,10 61.5923778,10.8777196 61.5751962,11.9752234 M58.757669,18.877978 C58.7374224,18.2123152 58.9710247,17.5643084 59.4413484,17.0937934 L61.1774146,15.3570388 C61.6437984,14.8905265 62.2835919,14.6404917 62.9419903,14.66884 C62.9587895,14.669498 62.9755888,14.6699914 62.9924974,14.6703204 C63.0216635,14.6707591 63.0507202,14.6705398 63.0796127,14.6696076 C63.7442492,14.6488811 64.3913752,14.883179 64.8615895,15.354352 L66.5655347,17.0617714 C67.0491555,17.5464331 67.2933736,18.2114379 67.2789821,18.8967306 C67.2788727,18.8999108 67.2788179,18.9031459 67.2787632,18.9063262 C67.2783254,18.9352776 67.2785991,18.9640097 67.2794746,18.9925772 C67.3005967,19.6609816 67.0671039,20.312059 66.5951933,20.7848769 L64.716744,22.6672111 C64.242754,23.1421675 63.592509,23.405033 62.923057,23.3721337 C62.9023179,23.3710919 62.8814693,23.3703791 62.860566,23.3701049 C61.8496027,23.3540939 61.0173021,24.1523957 61.0015973,25.1531928 C61.0011048,25.1827473 61.0013784,25.2121374 61.0023634,25.2414178 C61.0250724,25.9328517 60.7851773,26.6067941 60.2969599,27.0960068 L58.7491873,28.6469352 C58.2864698,29.1105962 57.6514918,29.3567927 56.9975257,29.3315699 C56.9833531,29.3310764 56.9691257,29.3306378 56.9548436,29.3304733 C56.9268814,29.3300346 56.8990286,29.3301991 56.8713947,29.3310216 C56.2221346,29.3497194 55.5903851,29.1203563 55.1310603,28.660095 L53.2876322,26.8128534 C52.8404006,26.3647648 52.6057586,25.7490542 52.631149,25.1157972 C52.6331736,25.064913 52.6331189,25.0134255 52.6309848,24.9614995 C52.591586,24.024527 51.8415305,23.2623596 50.9071213,23.2085693 C50.8517987,23.2054438 50.7970234,23.204731 50.7427953,23.206376 C50.0923313,23.2265542 49.462114,22.9796449 49.0019683,22.5185062 L47.3042613,20.8173924 C46.8183422,20.3304278 46.5725919,19.6623524 46.5869834,18.9738795 C46.5870929,18.9706992 46.5871476,18.9674093 46.5872023,18.9641742 C46.5876401,18.9350583 46.5874212,18.9061069 46.5865457,18.8772652 C46.5660254,18.2123152 46.7994089,17.5649116 47.268857,17.0945063 L49.0028439,15.3569839 C49.4683521,14.8905813 50.10727,14.6404917 50.7649571,14.66884 C50.7817563,14.669498 50.7986103,14.6699914 50.8154642,14.6703204 C50.8446303,14.6707591 50.873687,14.6705398 50.9025247,14.6696076 C51.56645,14.6489359 52.2129193,14.8830145 52.6825863,15.3536392 L54.4418541,17.116494 C54.8953786,17.5709431 55.1298564,18.1974557 55.096641,18.8392665 C55.0939597,18.8908635 55.0934125,18.9430089 55.0950541,18.995593 C55.1253693,19.9518115 55.8964375,20.7305931 56.850382,20.7695788 C56.8759912,20.7706206 56.9015458,20.7711689 56.9269361,20.7711689 C57.9254232,20.7712237 58.7425114,19.9681515 58.7583257,18.9641742 C58.7587634,18.9352776 58.7585993,18.9065455 58.757669,18.877978 Z"/></g></svg>