<svg xmlns="http://www.w3.org/2000/svg" width="32" height="32" viewBox="0 0 32 32"><path fill="#FFF" d="M16.5,12 C16.5,13.040625 16.44375,14.04375 16.3453125,15 L7.6546875,15 C7.5515625,14.04375 7.5,13.040625 7.5,12 C7.5,10.959375 7.55625,9.95625 7.6546875,9 L16.3453125,9 C16.4484375,9.95625 16.5,10.959375 16.5,12 Z M17.85,9 L23.6203125,9 C23.86875,9.9609375 24,10.9640625 24,12 C24,13.0359375 23.86875,14.0390625 23.6203125,15 L17.85,15 C17.9484375,14.034375 18,13.03125 18,12 C18,10.96875 17.9484375,9.965625 17.85,9 Z M23.128125,7.5 L17.6578125,7.5 C17.1890625,4.5046875 16.2609375,1.996875 15.065625,0.39375 C18.7359375,1.3640625 21.721875,4.0265625 23.1234375,7.5 L23.128125,7.5 Z M16.1390625,7.5 L7.8609375,7.5 C8.146875,5.79375 8.5875,4.284375 9.1265625,3.0609375 C9.61875,1.9546875 10.1671875,1.153125 10.696875,0.646875 C11.221875,0.15 11.6578125,0 12,0 C12.3421875,0 12.778125,0.15 13.303125,0.646875 C13.8328125,1.153125 14.38125,1.9546875 14.8734375,3.0609375 C15.4171875,4.2796875 15.8578125,5.7890625 16.1390625,7.5 L16.1390625,7.5 Z M6.3421875,7.5 L0.871875,7.5 C2.278125,4.0265625 5.259375,1.3640625 8.934375,0.39375 C7.7390625,1.996875 6.8109375,4.5046875 6.3421875,7.5 L6.3421875,7.5 Z M0.3796875,9 L6.15,9 C6.0515625,9.965625 6,10.96875 6,12 C6,13.03125 6.0515625,14.034375 6.15,15 L0.3796875,15 C0.13125,14.0390625 0,13.0359375 0,12 C0,10.9640625 0.13125,9.9609375 0.3796875,9 Z M9.1265625,20.934375 C8.5828125,19.715625 8.146875,18.20625 7.8609375,16.5 L16.1390625,16.5 C15.853125,18.20625 15.4125,19.715625 14.8734375,20.934375 C14.38125,22.040625 13.8328125,22.8421875 13.303125,23.3484375 C12.778125,23.85 12.3421875,24 12,24 C11.6578125,24 11.221875,23.85 10.696875,23.353125 C10.1671875,22.846875 9.61875,22.0453125 9.1265625,20.9390625 L9.1265625,20.934375 Z M6.3421875,16.5 C6.8109375,19.4953125 7.7390625,22.003125 8.934375,23.60625 C5.259375,22.6359375 2.278125,19.9734375 0.871875,16.5 L6.3421875,16.5 Z M23.128125,16.5 C21.721875,19.9734375 18.740625,22.6359375 15.0703125,23.60625 C16.265625,22.003125 17.1890625,19.4953125 17.6625,16.5 L23.128125,16.5 L23.128125,16.5 Z" transform="translate(4 4)"/></svg>